<svg viewBox="0 0 500 500" xmlns="http://www.w3.org/2000/svg"><path d="m172.18 255.87h240.4v110.87h-240.4z" fill="#f5f5f5"/><g fill="#e0e0e0"><path d="m406.87 361.51h-229.18v-99.81h229.18zm-227.69-1.51h226.19v-96.8h-226.19z"/><path d="m412.59 255.87h58.73v110.87h-58.73z"/><path d="m178.43 292.59h227.69a.3.3 0 0 0 0-.6h-227.69a.3.3 0 0 0 0 .6z"/><path d="m293 292.29a250.15 250.15 0 0 0 .08-30.12.31.31 0 0 0 -.62 0 250.15 250.15 0 0 0 .08 30.12.23.23 0 0 0 .46 0z"/><path d="m354.3 277.23a3.1 3.1 0 1 1 -3.1-3.1 3.1 3.1 0 0 1 3.1 3.1z"/><path d="m234.82 277.23a3.11 3.11 0 1 1 -3.11-3.1 3.1 3.1 0 0 1 3.11 3.1z"/><circle cx="292.28" cy="311.61" r="3.1"/><path d="m200.93 366.74-12.38 69.61h6.96l22.82-69.61z"/><path d="m395.58 366.74 10.35 69.73h-6.96l-20.8-69.73z"/><path d="m442.05 366.74 11.73 69.73h-6.96l-22.17-69.73z"/><path d="m295.17 343a3.1 3.1 0 1 1 -3.1-3.11 3.1 3.1 0 0 1 3.1 3.11z"/><path d="m178.43 326.92h227.69a.3.3 0 0 0 0-.6h-227.69a.3.3 0 0 0 0 .6z"/></g><path d="m410.77 218.27 12.05 38.12h-8.73l-3.84-13.14z" fill="#ebebeb"/><path d="m234.6 206.19s-8.08 6.16-.34 14.29a.69.69 0 0 0 .51.21l70.57-.41s6-6.76 1-14.55z" fill="#ebebeb"/><path d="m289.75 212.62c0 .07-8.79.14-19.63.14s-19.62-.07-19.62-.14 8.78-.15 19.62-.15 19.63.07 19.63.15z" fill="#e0e0e0"/><path d="m278.77 215.17c0 .08-4.13.14-9.23.14s-9.22-.06-9.22-.14 4.13-.14 9.22-.14 9.23.06 9.23.14z" fill="#e0e0e0"/><path d="m297 220.06s.16-.82.38-2.12a30 30 0 0 0 .4-5.15 30.54 30.54 0 0 0 -.5-5.14c-.24-1.3-.46-2.1-.42-2.11a1.87 1.87 0 0 1 .21.54c.12.36.26.88.41 1.53a25.45 25.45 0 0 1 .59 5.18 24.23 24.23 0 0 1 -.5 5.18c-.13.66-.26 1.18-.37 1.54a2.32 2.32 0 0 1 -.2.55z" fill="#e0e0e0"/><path d="m302.23 205.65a2 2 0 0 1 .31.51 6.06 6.06 0 0 1 .32.63c.11.25.25.53.36.86a15.72 15.72 0 0 1 .67 2.35 17.81 17.81 0 0 1 .31 3 18.27 18.27 0 0 1 -.26 3 16 16 0 0 1 -.64 2.35c-.1.33-.24.62-.34.87a5.54 5.54 0 0 1 -.31.64 4.12 4.12 0 0 1 -.3.52c-.05 0 .34-.79.76-2.09a16.74 16.74 0 0 0 .57-2.34 18.9 18.9 0 0 0 .23-2.92 17.56 17.56 0 0 0 -.28-2.93 18 18 0 0 0 -.6-2.32c-.44-1.36-.85-2.11-.8-2.13z" fill="#e0e0e0"/><path d="m245.74 220.15a1.93 1.93 0 0 1 -.33-.47 5 5 0 0 1 -.33-.59c-.12-.24-.26-.5-.38-.81a12.87 12.87 0 0 1 -.69-2.23 14 14 0 0 1 -.27-2.84 13.79 13.79 0 0 1 .35-2.84 12.23 12.23 0 0 1 .75-2.2 7.51 7.51 0 0 1 .39-.8 5.16 5.16 0 0 1 .35-.58 2.1 2.1 0 0 1 .34-.47c.05 0-.4.72-.9 1.93a14.53 14.53 0 0 0 -.68 2.18 15.83 15.83 0 0 0 -.32 2.78 16.08 16.08 0 0 0 .25 2.79 13.39 13.39 0 0 0 .62 2.2c.46 1.23.89 1.92.85 1.95z" fill="#e0e0e0"/><path d="m238.12 221.87a2.57 2.57 0 0 1 -.37-.53 7.46 7.46 0 0 1 -.37-.67 8.85 8.85 0 0 1 -.42-.91 14.88 14.88 0 0 1 -.81-2.49 15.58 15.58 0 0 1 -.14-6.38 15.36 15.36 0 0 1 .7-2.53 8.29 8.29 0 0 1 .38-.92 7.12 7.12 0 0 1 .34-.68 2.3 2.3 0 0 1 .34-.55s-.4.83-.87 2.22a15.94 15.94 0 0 0 -.63 2.5 18.36 18.36 0 0 0 -.23 3.15 17.78 17.78 0 0 0 .37 3.14 17.17 17.17 0 0 0 .73 2.47c.54 1.37 1.03 2.15.98 2.18z" fill="#e0e0e0"/><path d="m302.75 241.77v13.51h-26.13v-13.51z" fill="#ebebeb"/><path d="m218.36 248.65v.36a7.73 7.73 0 0 0 7.77 7.24h77.87v-1h-18.5a6.75 6.75 0 0 1 -6.75-6.75 6.76 6.76 0 0 1 6.75-6.76h18.5v-1.43l-77.84.26a7.79 7.79 0 0 0 -7.8 8.08z" fill="#e0e0e0"/><path d="m302.75 248.71c0 .07-5.37.14-12 .14s-12-.07-12-.14 5.37-.15 12-.15 12 .07 12 .15z" fill="#e0e0e0"/><path d="m302.38 251.75c0 .08-5.09.14-11.36.14s-11.35-.06-11.35-.14 5.08-.14 11.35-.14 11.36.06 11.36.14z" fill="#e0e0e0"/><path d="m302.75 254.53c0 .08-4.57.14-10.2.14s-10.21-.06-10.21-.14 4.57-.14 10.21-.14 10.2.06 10.2.14z" fill="#e0e0e0"/><path d="m302.75 246c0 .08-5.26.14-11.75.14s-11.75-.06-11.75-.14 5.26-.14 11.75-.14 11.75.03 11.75.14z" fill="#e0e0e0"/><path d="m302.38 243.24c0 .08-4.69.14-10.47.14s-10.46-.06-10.46-.14 4.69-.15 10.46-.15 10.47.07 10.47.15z" fill="#e0e0e0"/><path d="m227.79 240.83a16.24 16.24 0 0 0 -1.65 2 10 10 0 0 0 .13 11.58 16.87 16.87 0 0 0 1.7 1.92 2.24 2.24 0 0 1 -.56-.41 9.16 9.16 0 0 1 -1.3-1.39 9.88 9.88 0 0 1 -.14-11.81 8.76 8.76 0 0 1 1.27-1.42 2.68 2.68 0 0 1 .55-.47z" fill="#f5f5f5"/><path d="m225.16 240.54a16.46 16.46 0 0 0 -1.66 2 10 10 0 0 0 .14 11.57 16.87 16.87 0 0 0 1.7 1.92 2.24 2.24 0 0 1 -.56-.41 8.68 8.68 0 0 1 -1.3-1.39 9.84 9.84 0 0 1 -.14-11.81 8.32 8.32 0 0 1 1.27-1.42 2.68 2.68 0 0 1 .55-.46z" fill="#f5f5f5"/><path d="m278 240.83a16.78 16.78 0 0 0 -1.66 2 10 10 0 0 0 .14 11.58 15.76 15.76 0 0 0 1.7 1.92 2.24 2.24 0 0 1 -.56-.41 8.68 8.68 0 0 1 -1.3-1.39 9.84 9.84 0 0 1 -.14-11.81 8.32 8.32 0 0 1 1.27-1.42 2.68 2.68 0 0 1 .55-.47z" fill="#f5f5f5"/><path d="m275.41 240.54a16.46 16.46 0 0 0 -1.66 2 10 10 0 0 0 .14 11.57 15.76 15.76 0 0 0 1.7 1.92 2.24 2.24 0 0 1 -.56-.41 8.68 8.68 0 0 1 -1.3-1.39 10 10 0 0 1 -2-5.88 10.14 10.14 0 0 1 1.9-5.93 8.79 8.79 0 0 1 1.26-1.42 2.87 2.87 0 0 1 .52-.46z" fill="#f5f5f5"/><path d="m236.65 250.55c0-1.83-.05-3.66-.08-5.49a3.79 3.79 0 0 0 -.19-1.42 1.37 1.37 0 0 0 -1-.88 2.09 2.09 0 0 0 -2.24 1.06 5.19 5.19 0 0 0 -.54 2.7 39.23 39.23 0 0 0 .21 4.33 5 5 0 0 0 .51 2 1.85 1.85 0 0 0 1.67 1 1.9 1.9 0 0 0 1.47-1.28 5.49 5.49 0 0 0 .19-2.02z" fill="#f5f5f5"/><path d="m266.87 249c0 .08-5.63.14-12.56.14s-12.57-.06-12.57-.14 5.63-.14 12.57-.14 12.56.03 12.56.14z" fill="#f5f5f5"/><path d="m231.43 240.29-.14-12.8h6.97l.24 12.8z" fill="#f5f5f5"/><path d="m237.85 229.76a35.07 35.07 0 0 1 -6.48 0 37.56 37.56 0 0 1 6.48 0z" fill="#e0e0e0"/><path d="m237.85 231.74a37.56 37.56 0 0 1 -6.48 0 37.56 37.56 0 0 1 6.48 0z" fill="#e0e0e0"/><path d="m237.85 233.72a37.56 37.56 0 0 1 -6.48 0 35.07 35.07 0 0 1 6.48 0z" fill="#e0e0e0"/><path d="m237.85 235.69a37.56 37.56 0 0 1 -6.48 0 37.56 37.56 0 0 1 6.48 0z" fill="#e0e0e0"/><path d="m237.85 237.67a37.56 37.56 0 0 1 -6.48 0 35.07 35.07 0 0 1 6.48 0z" fill="#e0e0e0"/><path d="m230.92 227.15h77.23a36.51 36.51 0 0 1 0 13.83h-76.9v-.98h4.75a2.22 2.22 0 0 0 2.22-2.22v-7.65a2.22 2.22 0 0 0 -2.22-2.13h-5z" fill="#ebebeb"/><path d="m249.18 234.07h1.28a.33.33 0 0 1 .14 0 .24.24 0 0 1 .14.24.19.19 0 0 1 0 .08 2 2 0 0 1 -.09.33 3.61 3.61 0 0 1 -.8 1.46 1.53 1.53 0 0 1 -1.1.57h-.16a1.22 1.22 0 0 1 -.87-.63 2.89 2.89 0 0 1 -.39-1.56 3.85 3.85 0 0 1 .16-1.1 3.57 3.57 0 0 1 .76-1.49 1.53 1.53 0 0 1 1.16-.62 1.17 1.17 0 0 1 .49.11 1.59 1.59 0 0 1 .75.94.31.31 0 0 1 0 .13.25.25 0 0 1 0 .14.25.25 0 0 1 -.23.14h-.09a.28.28 0 0 1 -.18-.17 1.43 1.43 0 0 0 -.16-.3.72.72 0 0 0 -.61-.37.68.68 0 0 0 -.43.16 2.19 2.19 0 0 0 -.7 1 3.68 3.68 0 0 0 -.31 1.45 2.69 2.69 0 0 0 .22 1.14.76.76 0 0 0 .68.51.93.93 0 0 0 .62-.38 3.46 3.46 0 0 0 .66-1.19h-.92c-.21 0-.31-.14-.31-.32a.16.16 0 0 1 0-.09.29.29 0 0 1 .29-.18z" fill="#fafafa"/><path d="m253.56 231.56a.63.63 0 0 0 0 .09c.05.19.35 1.79.9 4.79a.14.14 0 0 1 0 .07.25.25 0 0 1 0 .14.27.27 0 0 1 -.23.14h-.05a.26.26 0 0 1 -.21-.19l-.31-1.59h-1.56l-.76 1.59v.06a.3.3 0 0 1 -.24.13.28.28 0 0 1 -.15 0 .29.29 0 0 1 -.13-.24.31.31 0 0 1 0-.08l.24-.52q1.66-3.65 2-4.3a.3.3 0 0 1 .27-.19.29.29 0 0 1 .23.1zm-.35 1.07-.85 1.8h1.21z" fill="#fafafa"/><path d="m257.87 236.79h-2.33a.28.28 0 0 1 -.15 0 .42.42 0 0 1 -.13-.3c0-.09.21-1.68.64-4.76a.43.43 0 0 1 0-.11.25.25 0 0 1 .25-.17.17.17 0 0 1 .12 0 .25.25 0 0 1 .15.24c0 .21-.07.65-.16 1.31-.26 2-.4 3.11-.41 3.22h2a.33.33 0 0 1 .15 0 .26.26 0 0 1 .18.26s0 .06 0 .09a.34.34 0 0 1 -.31.22z" fill="#fafafa"/><path d="m261.05 231.56a.63.63 0 0 0 0 .09c.05.19.35 1.79.9 4.79a.14.14 0 0 1 0 .07.37.37 0 0 1 0 .14.27.27 0 0 1 -.23.14h-.05a.26.26 0 0 1 -.21-.19l-.31-1.59h-1.58l-.76 1.59v.06a.3.3 0 0 1 -.24.13.28.28 0 0 1 -.15 0 .29.29 0 0 1 -.13-.24.31.31 0 0 1 0-.08l.24-.52q1.66-3.65 2-4.3a.3.3 0 0 1 .27-.19.29.29 0 0 1 .25.1zm-.35 1.07-.85 1.8h1.21z" fill="#fafafa"/><path d="m264.76 234.31.42 1.16q.36 1 .36 1.05a.24.24 0 0 1 -.05.14.25.25 0 0 1 -.46-.06v-.11c-.13-.29-.34-.84-.62-1.64l-1.32 1.79a.31.31 0 0 1 -.25.15.23.23 0 0 1 -.14 0 .25.25 0 0 1 -.13-.23v-.06a.6.6 0 0 1 .14-.22c.44-.57.93-1.25 1.46-2-.05-.16-.11-.3-.16-.44-.49-1.33-.74-2-.74-2.06a.32.32 0 0 1 0-.14.25.25 0 0 1 .23-.14.29.29 0 0 1 .26.15l.78 2.1 1.55-2.11a.32.32 0 0 1 .25-.14.19.19 0 0 1 .12 0 .26.26 0 0 1 .14.24.35.35 0 0 1 0 .13z" fill="#fafafa"/><path d="m270.52 231.44a.31.31 0 0 1 .13 0 .29.29 0 0 1 .15.24c-.39 3-.6 4.63-.63 4.88a3.1 3.1 0 0 1 -.5 1.27 1.79 1.79 0 0 1 -2.29.56 1.69 1.69 0 0 1 -.82-.72.23.23 0 0 1 0-.14.37.37 0 0 1 0-.14.27.27 0 0 1 .24-.13.26.26 0 0 1 .21.11 1.5 1.5 0 0 0 1.2.68 1.18 1.18 0 0 0 .92-.47 2.6 2.6 0 0 0 .51-1.46 1.29 1.29 0 0 1 -.34.36 1.4 1.4 0 0 1 -.84.27h-.15a1.22 1.22 0 0 1 -.88-.63 2.85 2.85 0 0 1 -.39-1.55c0-.28 0-.58 0-.88a19.43 19.43 0 0 1 .31-2s0-.06 0-.08a.24.24 0 0 1 .24-.19.23.23 0 0 1 .14 0 .24.24 0 0 1 .14.22 9.32 9.32 0 0 1 -.13 1.06 14.87 14.87 0 0 0 -.18 1.62 3.39 3.39 0 0 0 .2 1.26q.24.57.69.57h.1a1.21 1.21 0 0 0 .69-.56 3.32 3.32 0 0 0 .58-1.28l.35-2.65a.56.56 0 0 1 0-.12.25.25 0 0 1 .35-.1z" fill="#fafafa"/><path d="m305.24 241.16c-.07 0-.14-3.17-.14-7.09s.07-7.1.14-7.1.15 3.18.15 7.1-.07 7.09-.15 7.09z" fill="#f5f5f5"/><path d="m242.05 241.16c-.08 0-.14-3.17-.14-7.09s.06-7.1.14-7.1.14 3.18.14 7.1-.06 7.09-.14 7.09z" fill="#e0e0e0"/><path d="m306.6 241.16c-.08 0-.14-3.17-.14-7.09s.06-7.1.14-7.1.14 3.18.14 7.1-.06 7.09-.14 7.09z" fill="#f5f5f5"/><path d="m240.78 241.16c-.08 0-.14-3.17-.14-7.09s.06-7.1.14-7.1.15 3.18.15 7.1-.07 7.09-.15 7.09z" fill="#e0e0e0"/><path d="m286.52 229.31 8.16 6.59.07.06h-.09l-1.08.29-6.9 1.8-6.25-2.65-1.77-.75-.46-.21-.12-.05h.12l.47.19 1.78.74 6.26 2.61 6.89-1.82 1.09-.28v.08l-8.14-6.61" fill="#e0e0e0"/><path d="m293.93 234.84.45.42.59-.13-.26.55.31.53-.61-.08-.4.46-.12-.6-.56-.25.54-.29z" fill="#e0e0e0"/><path d="m286.1 237.44.31.25.38-.11-.15.37.22.33-.4-.03-.24.31-.1-.38-.37-.14.34-.21z" fill="#e0e0e0"/><path d="m277.45 233.89.49.03.3-.38.12.47.45.17-.41.26-.01.48-.38-.31-.46.13.18-.45z" fill="#e0e0e0"/><path d="m297.59 229.41.48.03.31-.38.12.47.45.17-.41.26-.02.48-.37-.31-.47.13.18-.45z" fill="#e0e0e0"/><path d="m286.12 229.09.31.02.19-.24.08.3.29.11-.26.16-.01.31-.24-.2-.3.09.12-.29z" fill="#e0e0e0"/><path d="m298.27 229.75s-2.64-.06-5.9-.2-5.89-.27-5.89-.3 2.64.05 5.9.19 5.89.28 5.89.31z" fill="#e0e0e0"/><path d="m301.24 227h-78.33c-1-2.33-1.27-4.54 0-6.52h78.33a7.58 7.58 0 0 1 0 6.52z" fill="#e0e0e0"/><path d="m239.13 222.37h42.43v2.37h-42.43z" fill="#ebebeb"/><path d="m225.92 227.06a2.45 2.45 0 0 1 -.62-.78 5.73 5.73 0 0 1 -.71-2.32 5.53 5.53 0 0 1 .3-2.4 2.24 2.24 0 0 1 .47-.89 7.25 7.25 0 0 1 -.28 1 6.69 6.69 0 0 0 -.21 2.32 6.62 6.62 0 0 0 .61 2.24 7.15 7.15 0 0 1 .44.83z" fill="#e0e0e0"/><path d="m227.61 227.06a2.36 2.36 0 0 1 -.61-.78 5.74 5.74 0 0 1 -.42-4.72 2.59 2.59 0 0 1 .47-.89 7.25 7.25 0 0 1 -.28 1 6.72 6.72 0 0 0 -.2 2.32 6.87 6.87 0 0 0 .6 2.24 7.15 7.15 0 0 1 .44.83z" fill="#e0e0e0"/><path d="m298.07 226.91a13.79 13.79 0 0 0 .55-3.19 12.93 12.93 0 0 0 -.52-3.19 5.61 5.61 0 0 1 .8 3.2 5.7 5.7 0 0 1 -.83 3.18z" fill="#f5f5f5"/><path d="m296.61 226.9c-.09 0 .24-1.4.24-3.13s-.33-3.1-.25-3.12a9.56 9.56 0 0 1 0 6.25z" fill="#f5f5f5"/><path d="m357.02 186.93h53.75v70.13h-53.39z" fill="#e0e0e0"/><path d="m353.11 187.27h53.44v69.42h-53.44z" fill="#fff" transform="matrix(-1 0 0 -1 759.66 443.97)"/><path d="m406.82 187v70h-54v-70zm-.53 69.42v-68.88h-52.91v68.89z" fill="#e0e0e0"/><path d="m358.69 194.8h40.91v54.39h-40.91z" fill="#fff"/><path d="m358.61 194.79v.27.76 3 11.16c0 9.56 0 23.14.06 39.24l-.12-.13h40.91l-.14.14c0-20.25 0-39 0-54.39l.12.12-29.71-.06h-8.27-2.18 2.13 8.25l29.78-.06h.11v.11 54.39.14h-.14-40.9-.13v-.12c0-16.13 0-29.74.06-39.32 0-4.78 0-8.54 0-11.13 0-1.28 0-2.26 0-2.94 0-.32 0-.57 0-.75a2.28 2.28 0 0 1 .17-.43z" fill="#e0e0e0"/><path d="m353 256.7a7 7 0 0 1 .72-1.18c.48-.7 1.15-1.67 1.92-2.71s1.5-2 2-2.62a6.06 6.06 0 0 1 .94-1 8.1 8.1 0 0 1 -.78 1.13l-2 2.67-2 2.66a7.85 7.85 0 0 1 -.8 1.05z" fill="#e0e0e0"/><path d="m353.11 187.27a42.36 42.36 0 0 1 2.89 3.73 41 41 0 0 1 2.64 3.84 35.37 35.37 0 0 1 -2.86-3.68 38.18 38.18 0 0 1 -2.67-3.89z" fill="#e0e0e0"/><path d="m406.55 187.27-7.03 7.8" fill="#fff"/><path d="m399.52 195.07a48.81 48.81 0 0 1 3.41-4 50.16 50.16 0 0 1 3.62-3.81 48.81 48.81 0 0 1 -3.41 4c-1.95 2.16-3.57 3.86-3.62 3.81z" fill="#e0e0e0"/><path d="m406.55 256.7a91.32 91.32 0 0 1 -6.72-7.45 45.47 45.47 0 0 1 3.46 3.63 44.77 44.77 0 0 1 3.26 3.82z" fill="#e0e0e0"/><path d="m360.56 249.18s4.41-13.64 7-15.09a25.1 25.1 0 0 1 11.51-3.09c6.05 0 8.94.39 12.49 2.84 4.11 2.82 6.88 15.22 6.88 15.22" fill="#e0e0e0"/><path d="m372.77 208.57c-3.77.16-4.68 5.22-4.43 8.1.12 1.37.54 2.85-.15 4-.49.84-1.45 1.34-1.86 2.22-.49 1.08 0 2.31.34 3.44s.51 2.55-.39 3.31a32.84 32.84 0 0 0 6.5 1.23 11 11 0 0 0 6.36-1.42" fill="#e0e0e0"/><path d="m370.08 218.65c-2.48-5.68.89-9.16 3.08-10.41a9.22 9.22 0 0 1 4.37-1 15.94 15.94 0 0 1 4.42.39 8 8 0 0 1 3.84 2.15c1.81 1.92 2.23 4.78 2.06 7.41a20.57 20.57 0 0 1 -2.59 8.86 2.19 2.19 0 0 1 -.77.9.81.81 0 0 1 -1.06-.19" fill="#e0e0e0"/><path d="m378.46 238.17c2.56.17 4.79-2 5.06-6l1.36-20-.1 1.38a1.61 1.61 0 0 0 -1.44-1.63l-7.93-.81a4.83 4.83 0 0 0 -5.31 4.51 48.75 48.75 0 0 0 .09 9c.73 4.57 4.24 5.14 4.24 5.14l-.28 3.32a4.65 4.65 0 0 0 4.31 5z" fill="#f5f5f5"/><path d="m371.63 218.24a.58.58 0 0 0 .56.59.56.56 0 0 0 .6-.53.58.58 0 0 0 -.56-.59.55.55 0 0 0 -.6.53z" fill="#e0e0e0"/><path d="m370.92 217.6c.07.07.51-.26 1.14-.26s1.1.32 1.17.24 0-.17-.25-.32a1.65 1.65 0 0 0 -.93-.28 1.51 1.51 0 0 0 -.91.3c-.14.14-.26.28-.22.32z" fill="#e0e0e0"/><path d="m377.68 218.24a.59.59 0 0 0 .57.59.56.56 0 0 0 .6-.53.59.59 0 0 0 -.57-.59.56.56 0 0 0 -.6.53z" fill="#e0e0e0"/><path d="m377.12 217.7c.07.07.51-.26 1.14-.26s1.1.32 1.16.24 0-.17-.24-.32a1.68 1.68 0 0 0 -.93-.28 1.51 1.51 0 0 0 -.91.3c-.19.14-.26.28-.22.32z" fill="#e0e0e0"/><path d="m374.84 222.38a4.07 4.07 0 0 0 -1-.18c-.16 0-.32 0-.34-.16a.78.78 0 0 1 .1-.48l.47-1.22a21 21 0 0 0 1.06-3.21 20.68 20.68 0 0 0 -1.31 3.11c-.16.43-.31.84-.45 1.24a.94.94 0 0 0 -.09.63.41.41 0 0 0 .27.23.68.68 0 0 0 .27 0 4.07 4.07 0 0 0 1.02.04z" fill="#e0e0e0"/><path d="m374.43 229.84a11.6 11.6 0 0 0 6.11-1.65s-1.63 3.17-6.2 2.75z" fill="#ebebeb"/><path d="m375.11 223.9a1.15 1.15 0 0 1 1-.43 1 1 0 0 1 .72.39.67.67 0 0 1 0 .75.78.78 0 0 1 -.83.21 2.34 2.34 0 0 1 -.8-.48.55.55 0 0 1 -.18-.19.18.18 0 0 1 0-.23" fill="#e0e0e0"/><path d="m376.7 222.81c-.1 0-.1.68-.69 1.17s-1.31.41-1.32.51.17.13.47.14a1.67 1.67 0 0 0 1.1-.39 1.53 1.53 0 0 0 .54-1c.02-.24-.06-.43-.1-.43z" fill="#e0e0e0"/><path d="m376.83 216.59c.06.18.69.09 1.43.18s1.34.29 1.44.13-.06-.23-.31-.4a2.43 2.43 0 0 0 -1.06-.37 2.51 2.51 0 0 0 -1.12.14c-.27.11-.41.24-.38.32z" fill="#e0e0e0"/><path d="m371.14 215.77c.12.14.55 0 1.07 0s1 .09 1.07-.06 0-.22-.22-.35a1.39 1.39 0 0 0 -.87-.23 1.43 1.43 0 0 0 -.85.29c-.18.13-.24.28-.2.35z" fill="#e0e0e0"/><path d="m373.67 208c4.43-2.48 9.18-.74 12.76 2.85a8.7 8.7 0 0 0 2.57 2.15c1.11.48 2.59.4 3.25 1.41.78 1.19-.27 2.86.3 4.15s2.15 1.54 2.76 2.69a4.42 4.42 0 0 1 0 3 3 3 0 0 0 .44 2.89l-9.53 3.61a2.45 2.45 0 0 1 -1.34.15c-1.35-.27-1.45-1.52-1.32-2.56a4.4 4.4 0 0 0 -.06-2.31c-.39-.83-1.37-1.28-1.72-2.13-.61-1.51 1.09-3.08.88-4.7a3 3 0 0 0 -1.93-2.19 29.38 29.38 0 0 0 -2.95-.86 8.83 8.83 0 0 1 -5.05-5.06 2.47 2.47 0 0 1 1-3.11z" fill="#e0e0e0"/><path d="m331.55 48.87v125.42h-162l-5.83-124.54z" fill="#e0e0e0"/><path d="m182.37 30.95h124.69v161.99h-124.69z" fill="#fff" transform="matrix(0 -1 1 0 132.77 356.66)"/><path d="m326.33 174.91h-163.23v-125.91h163.23zm-162-1.24h160.76v-123.45h-160.75z" fill="#e0e0e0"/><path d="m181.26 62.41h126.9v95.46h-126.9z" fill="#fff"/><path d="m308.16 62.41h-.61-1.79-6.91l-26 .08-91.56.14.29-.29v95.46l-.32-.33 126.9.06-.26.27c.1-28.8.1-52.6.1-69.24 0-8.33 0-14.85.07-19.3 0-2.22 0-3.92 0-5.09s0-1.76 0-1.76 0 .57 0 1.71 0 2.83 0 5c0 4.44 0 10.94.07 19.24 0 16.68.08 40.57.14 69.49v.26h-.27l-126.9.06h-.32v-.32c0-34.32 0-66.82 0-95.46v-.29h.29l91.75.15 26 .07h6.86 1.75z" fill="#e0e0e0"/><path d="m163.72 49.31a16 16 0 0 1 2.74 1.69c1.64 1.11 3.89 2.68 6.32 4.48s4.59 3.49 6.11 4.77a14.94 14.94 0 0 1 2.37 2.17 17.15 17.15 0 0 1 -2.65-1.82l-6.21-4.6-6.21-4.62a16.45 16.45 0 0 1 -2.47-2.07z" fill="#e0e0e0"/><path d="m325.71 49.6c.1.14-3.74 3.13-8.58 6.67s-8.86 6.29-9 6.14 3.74-3.13 8.59-6.66 8.88-6.29 8.99-6.15z" fill="#e0e0e0"/><path d="m325.71 174.29-18.19-16.41" fill="#fff"/><path d="m307.52 157.88c.12-.14 4.29 3.43 9.31 8s9 8.32 8.88 8.45-4.29-3.44-9.31-8-9-8.33-8.88-8.45z" fill="#e0e0e0"/><path d="m163.72 174.29c-.12-.13 3.67-3.75 8.46-8.08s8.78-7.73 8.9-7.59-3.67 3.74-8.46 8.07-8.78 7.73-8.9 7.6z" fill="#e0e0e0"/><circle cx="260.34" cy="106.09" fill="#f5f5f5" r="15.32" transform="matrix(.18840986 -.98209049 .98209049 .18840986 107.09 341.78)"/><path d="m255.37 120.64c-.16-.08.49-1.65 1.33-4.23a25.47 25.47 0 0 0 1.4-10.3 14.36 14.36 0 0 0 -4.47-9c-2-1.77-3.72-2.14-3.64-2.35s1.86 0 4.17 1.7a14.09 14.09 0 0 1 5.13 9.56 22.55 22.55 0 0 1 -1.8 10.71c-1.06 2.53-1.99 3.97-2.12 3.91z" fill="#e0e0e0"/><path d="m275.14 104.24c-.07.35-4.13-1.12-8.91.3s-7.4 4.82-7.65 4.57c-.12-.09.35-1.06 1.55-2.29a13.56 13.56 0 0 1 12.46-3.66c1.68.38 2.6.94 2.55 1.08z" fill="#e0e0e0"/><path d="m268.22 103.46c-.19 0-.1-1.07-.66-2.58a6.87 6.87 0 0 0 -9.94-3.88c-1.43.73-2.08 1.57-2.23 1.45s.31-1.15 1.79-2.18a7.22 7.22 0 0 1 11.19 4.36c.4 1.78-.02 2.87-.15 2.83z" fill="#e0e0e0"/><path d="m263.34 105.07c-.34-.07-.09-2.17-.7-4.61s-1.74-4.22-1.47-4.44 2 1.39 2.62 4.16-.16 5-.45 4.89z" fill="#e0e0e0"/><path d="m263.2 100.28c0 .35-1.33.42-2.6 1.09s-2.33 1.57-2.58 1.31.43-1.47 2-2.37 3.25-.31 3.18-.03z" fill="#e0e0e0"/><path d="m238.7 107.46a11.62 11.62 0 1 1 -16.38 1.42 11.63 11.63 0 0 1 16.38-1.42z" fill="#f5f5f5"/><path d="m239.18 124.87a19.69 19.69 0 0 1 -2.36-2.4 19.34 19.34 0 0 0 -6.39-4.61 10.91 10.91 0 0 0 -7.65-.23 19.2 19.2 0 0 0 -2.87 1.6c-.08 0 .64-1.26 2.63-2.19a10.65 10.65 0 0 1 8.23 0 17.14 17.14 0 0 1 6.53 5 9.47 9.47 0 0 1 1.88 2.83z" fill="#e0e0e0"/><path d="m235.26 105.79c.21.17-2.23 2.36-3 6.07s.59 6.67.33 6.75c-.1 0-.59-.61-1-1.86a10.3 10.3 0 0 1 2-9.64c.89-.99 1.59-1.41 1.67-1.32z" fill="#e0e0e0"/><path d="m232.27 110.14c-.08.12-.76-.31-2-.48a5.23 5.23 0 0 0 -6.15 5.28c0 1.21.31 2 .18 2s-.65-.62-.82-2a5.48 5.48 0 0 1 6.92-5.94c1.36.4 1.94 1.07 1.87 1.14z" fill="#e0e0e0"/><path d="m231.61 114c-.17.21-1.49-.71-3.35-1.17s-3.44-.34-3.49-.6 1.64-.83 3.72-.28 3.29 1.87 3.12 2.05z" fill="#e0e0e0"/><path d="m228.35 112.36c.23.15-.2 1-.2 2.13s.22 2.13-.05 2.2-.83-.81-.85-2.21.93-2.26 1.1-2.12z" fill="#e0e0e0"/><path d="m239.19 103.46c-4.1-2.68-6.63-7.45-8.26-12.07a22.76 22.76 0 0 1 -.19-14.45 18.92 18.92 0 0 1 9.89 10.56c1.71 4.65.7 11.49-1.44 16" fill="#ebebeb"/><path d="m234.42 84.52a166.2 166.2 0 0 1 4.41 18.26" fill="#fff"/><path d="m238.83 102.78a11.76 11.76 0 0 1 -.74-2.66c-.45-1.9-1-4.06-1.52-6.45s-1.13-4.55-1.6-6.44a12.06 12.06 0 0 1 -.55-2.71 11.43 11.43 0 0 1 1 2.58c.52 1.62 1.17 3.89 1.78 6.41s1.07 4.84 1.34 6.52a11.45 11.45 0 0 1 .29 2.75z" fill="#e0e0e0"/><path d="m249.59 124.31c4.8-1 10 .57 14.38 2.69a22.7 22.7 0 0 1 10.35 10.08 18.79 18.79 0 0 1 -14.46-.48c-4.5-2.07-8.62-7.62-10.27-12.29" fill="#ebebeb"/><path d="m266.36 134.32a165.74 165.74 0 0 1 -16-9.79" fill="#fff"/><path d="m250.33 124.53a12 12 0 0 1 2.4 1.36l5.64 3.49 5.68 3.42a12.92 12.92 0 0 1 2.31 1.52 10.78 10.78 0 0 1 -2.53-1.12c-1.51-.78-3.57-1.92-5.79-3.27s-4.18-2.67-5.56-3.67a11.19 11.19 0 0 1 -2.15-1.73z" fill="#e0e0e0"/><path d="m244.94 126.59c.88 2.8.24 6-.76 8.71a13.55 13.55 0 0 1 -5.39 6.75 11.25 11.25 0 0 1 -.56-8.63c1-2.8 4-5.58 6.71-6.83" fill="#ebebeb"/><path d="m240 137.15a97.9 97.9 0 0 1 4.85-10.15" fill="#fff"/><path d="m244.85 127c.16.09-.95 2.34-2.29 5.13s-2.42 5.05-2.59 5 .65-2.46 2-5.26 2.73-4.87 2.88-4.87z" fill="#e0e0e0"/><path d="m25.05 169.13c-3.29-22.32 7.53-43.73 29.32-48h.22c20.67-3.85 38.88 1.76 42.31 9.68 11.26 25.95 6.67 35.18 6.67 35.18l-48.13 36.24s-25-10.91-30.23-32.46c-.05-.21-.12-.43-.16-.64z" fill="#263238"/><path d="m98.37 146.8c-3.61-10.2-14.11-21-24.15-16.94l-30 17.36a6.32 6.32 0 0 0 -3.68 7.72l22.12 70.37a19.48 19.48 0 0 0 24.34 12.77 19.48 19.48 0 0 0 13-23.87l-2.54-9.05s12.63-6 10.46-24.06c-1.1-8.99-5.54-22.98-9.55-34.3z" fill="#ffbe9d"/><path d="m99 157.52c-.19.37-2.23-.39-4.61.29s-3.8 2.38-4.14 2.16c-.17-.09 0-.69.57-1.47a6.3 6.3 0 0 1 3.18-2.08 6 6 0 0 1 3.78.13c.89.35 1.29.81 1.22.97z" fill="#263238"/><path d="m75.82 165.12c-.19.37-2.23-.39-4.62.29s-3.79 2.38-4.13 2.16c-.17-.09 0-.69.57-1.47a6.3 6.3 0 0 1 3.21-2.1 6 6 0 0 1 3.78.13c.89.37 1.29.87 1.19.99z" fill="#263238"/><path d="m87.76 177.37c-.05-.13 1.36-.81 3.68-1.8.59-.24 1.13-.52 1.12-1a3.31 3.31 0 0 0 -.93-1.69l-3.12-4.13c-4.39-5.9-7.75-10.82-7.51-11s4 4.46 8.38 10.36l3.05 4.18a3.67 3.67 0 0 1 1 2.3 1.58 1.58 0 0 1 -.75 1.18 4.32 4.32 0 0 1 -1 .44c-2.38.86-3.87 1.3-3.92 1.16z" fill="#263238"/><path d="m97.45 205.16a45.78 45.78 0 0 1 -24.93.41s9.22 10.22 26.07 3.67z" fill="#eb996e"/><path d="m88.39 183.42a4.46 4.46 0 0 0 -4.32-.5 4 4 0 0 0 -2.29 2.22 2.59 2.59 0 0 0 .62 2.9 3 3 0 0 0 3.35-.1 9.33 9.33 0 0 0 2.54-2.69 2.9 2.9 0 0 0 .48-.9.83.83 0 0 0 -.26-.89" fill="#ff725e"/><path d="m81.2 181c.38-.13 1.13 2.46 3.87 3.67s5.42.14 5.54.49c.08.16-.47.68-1.63 1a6.72 6.72 0 0 1 -4.58-.16 5.81 5.81 0 0 1 -3.08-3.12c-.41-1.1-.32-1.82-.12-1.88z" fill="#263238"/><path d="m73.43 156.46c-.05.71-2.52 1.09-5.23 2.22s-4.75 2.54-5.29 2.07c-.24-.23 0-1 .71-1.85a9.44 9.44 0 0 1 3.63-2.55 9.28 9.28 0 0 1 4.38-.71c1.15.12 1.81.48 1.8.82z" fill="#263238"/><path d="m94.55 148.35c-.27.66-2.07.56-4.06 1.1s-3.54 1.4-4.09 1c-.25-.23-.14-.85.45-1.57a6 6 0 0 1 6.56-1.65c.86.3 1.25.77 1.14 1.12z" fill="#263238"/><path d="m40.29 177.4c.1.26 8.25 7 12.15 5.18 11.82-5.42 3.47-37.19 3.47-37.19l4.16 11.34 19.3-6.61-5.53-12.82 7.16 11.37 17.6-4.08s-8.17-21-22.76-20.16-50.49 16.11-35.55 52.97z" fill="#263238"/><path d="m49.23 177.51c-.27-.06-9.69-2.11-7.75 7.85s11.52 5.95 11.52 5.64-3.77-13.49-3.77-13.49z" fill="#ffbe9d"/><path d="m49.2 187.84c-.05 0-.15.16-.42.35a1.76 1.76 0 0 1 -1.29.28c-1.13-.18-2.34-1.68-2.74-3.46a5.75 5.75 0 0 1 0-2.58 2 2 0 0 1 1-1.59.91.91 0 0 1 1.12.28c.19.25.16.46.22.47s.18-.21 0-.61a1.07 1.07 0 0 0 -.52-.54 1.31 1.31 0 0 0 -1-.07 2.5 2.5 0 0 0 -1.52 1.9 6.09 6.09 0 0 0 -.06 2.89c.46 2 1.85 3.67 3.37 3.81a1.91 1.91 0 0 0 1.54-.58c.33-.3.34-.54.3-.55z" fill="#eb996e"/><path d="m68.81 149.67a4.18 4.18 0 0 1 -.35-1.07l-.84-2.95a92.93 92.93 0 0 0 -3.34-9.51 94.72 94.72 0 0 0 -4.37-9.09l-1.5-2.67a4.52 4.52 0 0 1 -.51-1 4.64 4.64 0 0 1 .68.9c.41.59 1 1.48 1.65 2.6a71 71 0 0 1 4.53 9.07 72.34 72.34 0 0 1 3.24 9.6c.32 1.26.55 2.29.68 3a5.1 5.1 0 0 1 .13 1.12z" fill="#455a64"/><path d="m81.06 139.87c-.09 0-.78-1.51-2.3-3.79a33.44 33.44 0 0 0 -2.93-3.77 36.92 36.92 0 0 0 -4.28-4 36.71 36.71 0 0 0 -4.92-3.18 33.49 33.49 0 0 0 -4.37-1.93c-2.57-.91-4.25-1.2-4.23-1.3a5 5 0 0 1 1.18.15 11.77 11.77 0 0 1 1.38.3c.52.14 1.14.27 1.79.5a30.39 30.39 0 0 1 4.48 1.85 35.6 35.6 0 0 1 5 3.19 34.67 34.67 0 0 1 4.32 4.11 29.1 29.1 0 0 1 2.89 3.89 18.42 18.42 0 0 1 .93 1.61 11.06 11.06 0 0 1 .62 1.26 4.92 4.92 0 0 1 .44 1.11z" fill="#455a64"/><path d="m92.24 140.5a22.71 22.71 0 0 0 -2.14-5.28 23.49 23.49 0 0 0 -10.18-9 47.76 47.76 0 0 0 -13.27-3.65l-4.17-.56a10.13 10.13 0 0 1 -1.53-.25 7.94 7.94 0 0 1 1.55 0c1 .06 2.43.19 4.2.4a43.88 43.88 0 0 1 13.45 3.54 23 23 0 0 1 10.27 9.3 15.47 15.47 0 0 1 1.58 4 11.2 11.2 0 0 1 .21 1.13 1.72 1.72 0 0 1 .03.37z" fill="#455a64"/><path d="m35.86 174.1s-.1-.15-.24-.47l-.57-1.39c-.24-.61-.49-1.37-.8-2.25s-.6-1.9-.86-3a51.75 51.75 0 0 1 -1.2-18.2c.82-7.1 2.89-13.44 5.73-17.25a14.69 14.69 0 0 1 4-3.85 10.22 10.22 0 0 1 1.35-.69 2.85 2.85 0 0 1 .49-.19c0 .06-.65.33-1.72 1a15.27 15.27 0 0 0 -3.82 3.89c-2.71 3.78-4.7 10.07-5.51 17.1a54 54 0 0 0 1 18.05c.24 1.14.55 2.15.78 3l.71 2.26.48 1.42a2.49 2.49 0 0 1 .18.57z" fill="#455a64"/><path d="m39.93 175.52a25.07 25.07 0 0 0 4.46-5.52 28 28 0 0 0 2.84-7.14 46.39 46.39 0 0 0 1.33-9.34c.14-3.36.07-6.58.06-9.5s0-5.57.16-7.78a43.28 43.28 0 0 1 .63-5.21c.11-.61.23-1.08.31-1.39a1.43 1.43 0 0 1 .14-.48 15.64 15.64 0 0 1 -.25 1.9c-.17 1.22-.36 3-.46 5.2s-.1 4.83 0 7.75.12 6.14 0 9.53a45.23 45.23 0 0 1 -1.45 9.46 27.5 27.5 0 0 1 -3 7.21 19.12 19.12 0 0 1 -3.28 4.1 12.64 12.64 0 0 1 -1.09.93 2.38 2.38 0 0 1 -.4.28z" fill="#455a64"/><path d="m51.21 191.63s.15.2.21.62a3.38 3.38 0 0 1 -.28 1.78 3.65 3.65 0 0 1 -1.91 1.88 3.63 3.63 0 0 1 -4.81-3.32 3.64 3.64 0 0 1 1.08-2.45 3.38 3.38 0 0 1 1.56-.89c.42-.1.66-.06.66 0a4.38 4.38 0 0 0 -1.95 1.17 3.39 3.39 0 0 0 -.87 2.21 3.21 3.21 0 0 0 4.16 2.86 3.44 3.44 0 0 0 1.75-1.59 4.32 4.32 0 0 0 .4-2.27z" fill="#fafafa"/><path d="m74.55 223.26c-9.88-2.22-14.33-6-14.33-6l.64 4.91 9.86 8.83-31 27.7c2.11 8.44 24.39 61.2 29.17 78.14s-19.85 32.38 3.61 42.37 111.65 5 113.82-13.22c1.71-14.39-10.46-59.62-15.68-78.11l21.84-2c18.83-31.75-48.95-70-61.79-73.31-11.72-3.07-25.46.42-27.77 1l-.35-1.09-3.76-2.52a10.13 10.13 0 0 1 .37 1.34c-.18 8.31-9.13 11.18-15.07 12.16a24.92 24.92 0 0 1 -9.56-.2z" fill="#ff725e"/><path d="m160.61 317.69a88.31 88.31 0 0 1 -97-16.56c7.22 10.55 15.16 23.09 26.64 28.72 7 3.43 14.9 4.59 22.67 5.26 14.76 1.28 30.8.64 42.64-8.26 3.11 3.5 6.25 7 10.06 9.77s8.39 4.63 13.07 4.42c-2.99-9.52-10.69-16.67-18.08-23.35z" opacity=".3"/><path d="m147.7 347.17c8.21 6.08 17.05 13.4 25.34 19.37a12.42 12.42 0 0 0 4.86 2.18c3.67.58 5.49-1.74 7.6-4.8a48.18 48.18 0 0 0 6.29-12.79c1.09-3.43 1.64-7.61-.79-10.28-1.8-2-3.8-2.14-6.37-2.88-1-.3-2.56-5.46-2.85-6.42l-3.11 8.65-7.18 3.05-15.31-1.55z" fill="#ff725e"/><path d="m182 336.44a5.13 5.13 0 0 1 -.6 1.05 32.12 32.12 0 0 1 -1.92 2.7 47.08 47.08 0 0 1 -16.9 13.55c-1.27.59-2.31 1-3.05 1.28a6.24 6.24 0 0 1 -1.16.36c0-.09 1.57-.71 4-2a53.06 53.06 0 0 0 16.8-13.38c1.76-2.18 2.73-3.61 2.83-3.56z" fill="#263238"/><path d="m103.56 213.45a2.13 2.13 0 0 1 -.06.51 14.15 14.15 0 0 1 -.34 1.43 16.31 16.31 0 0 1 -2.44 4.79 19.5 19.5 0 0 1 -5.94 5.31 24.71 24.71 0 0 1 -9.28 3 33.48 33.48 0 0 1 -17.4-2.47 23.53 23.53 0 0 1 -4.64-2.72 14.13 14.13 0 0 1 -1.13-.93c-.24-.22-.37-.34-.36-.36s.57.42 1.61 1.13a26.86 26.86 0 0 0 4.66 2.54 34.17 34.17 0 0 0 17.2 2.32 24.5 24.5 0 0 0 9.1-2.93 19.57 19.57 0 0 0 5.89-5.11 17.44 17.44 0 0 0 2.54-4.64c.41-1.19.54-1.88.59-1.87z" fill="#263238"/><path d="m115.28 178.19a29.43 29.43 0 0 0 -3.65 2.91 16.94 16.94 0 0 0 -1.25 2.19 1.19 1.19 0 0 0 -.16.85.82.82 0 0 0 1.19.28 2.43 2.43 0 0 0 .79-1.14 2.37 2.37 0 0 0 2.91 1.95 3.21 3.21 0 0 0 2.23-3c.04-1.34-1.12-3.09-2.06-4.04z" fill="#263238"/><path d="m224.83 367.64c-.36-.16.08-1.77.43-4.33.08-.65.18-1.35.21-2.1s.06-1.56.08-2.41a33 33 0 0 0 -.57-5.46 31.51 31.51 0 0 0 -1.58-5.25c-.34-.78-.64-1.53-1-2.19s-.68-1.3-1-1.86c-1.31-2.24-2.34-3.55-2.07-3.84s1.75.63 3.57 2.77a16.93 16.93 0 0 1 1.37 1.84 22.27 22.27 0 0 1 1.32 2.29 25 25 0 0 1 1.95 5.73 25.44 25.44 0 0 1 .41 6 22.32 22.32 0 0 1 -.34 2.61 15.48 15.48 0 0 1 -.55 2.23c-.86 2.72-1.94 4.11-2.23 3.97z" fill="#263238"/><path d="m229.52 370.41c-.32-.25.67-1.87 1.82-4.58a23.68 23.68 0 0 0 .86-2.25c.31-.8.54-1.7.81-2.63a37.16 37.16 0 0 0 1-6.18 36.44 36.44 0 0 0 -.21-6.27c-.15-.95-.25-1.87-.46-2.71s-.37-1.62-.57-2.34c-.8-2.84-1.57-4.56-1.23-4.77s1.64 1.26 3 4.14a18.57 18.57 0 0 1 .93 2.42 25.67 25.67 0 0 1 .74 2.88 26.86 26.86 0 0 1 -.85 13.51 23.67 23.67 0 0 1 -1.11 2.76 17.83 17.83 0 0 1 -1.22 2.28c-1.73 2.7-3.27 3.94-3.51 3.74z" fill="#263238"/><path d="m206.34 303c-.08 0 .29-1.16.66-3a47.22 47.22 0 0 0 .79-7.42c.11-2.92 0-5.57-.11-7.49a22.63 22.63 0 0 1 -.11-3.11 16.27 16.27 0 0 1 .48 3.09 55.84 55.84 0 0 1 .26 7.53 36.77 36.77 0 0 1 -1 7.48 17.42 17.42 0 0 1 -.66 2.19c-.15.46-.27.73-.31.73z" fill="#263238"/><path d="m239.49 420.75s48.16 17 50.09 17.88c2.88 1.24 1.62 12.05-3 11.56-2.17-.24-37.82-1.33-42.29-1.92s-17.65-6.89-17.65-6.89z" fill="#455a64"/><path d="m258.64 440.93c.24.05.76-2.52 2.53-5.12s3.93-4.07 3.79-4.28-2.61 1-4.47 3.82-2.06 5.58-1.85 5.58z" fill="#263238"/><path d="m253.68 438.25c.24.06.9-2.23 2.39-4.71s3.15-4.16 3-4.34-2.16 1.3-3.7 3.92-1.9 5.1-1.69 5.13z" fill="#263238"/><path d="m249 436.62c.25 0 .23-2.46 1.51-5.11s3.16-4.21 3-4.4-2.4 1.17-3.74 4.05-1.01 5.52-.77 5.46z" fill="#263238"/><path d="m250.28 430.34a8.63 8.63 0 0 0 .79-3.62 17 17 0 0 0 -.22-4 18.33 18.33 0 0 0 -.57-2.33 2.77 2.77 0 0 0 -.7-1.26 1.32 1.32 0 0 0 -1.69 0 2.2 2.2 0 0 0 -.76 1.34 10 10 0 0 0 -.15 1.29 10.72 10.72 0 0 0 .13 2.43 15 15 0 0 0 1.25 3.86 10.14 10.14 0 0 0 2 3.11c.12-.07-.62-1.27-1.46-3.34a16.22 16.22 0 0 1 -1-3.74 11.24 11.24 0 0 1 -.08-2.26c.08-.76.14-1.7.6-2a.48.48 0 0 1 .66 0 2.08 2.08 0 0 1 .47.89 18.42 18.42 0 0 1 .6 2.22 20.5 20.5 0 0 1 .38 3.88c-.06 2.13-.38 3.5-.25 3.53z" fill="#263238"/><path d="m250.26 429.84a6.89 6.89 0 0 0 -3.13-.74 14.13 14.13 0 0 0 -3.52.19 7.61 7.61 0 0 0 -2.06.59 2.09 2.09 0 0 0 -1.26 2.17 2.45 2.45 0 0 0 1.64 1.88 4.57 4.57 0 0 0 2.21.15 8.64 8.64 0 0 0 3.3-1.35 8.49 8.49 0 0 0 2.44-2.09 22.45 22.45 0 0 0 -2.74 1.59 8.71 8.71 0 0 1 -3.11 1.09 3.74 3.74 0 0 1 -1.82-.15 1.67 1.67 0 0 1 -1.11-1.25 1.28 1.28 0 0 1 .82-1.32 7.57 7.57 0 0 1 1.84-.57 16.31 16.31 0 0 1 3.35-.34c1.89 0 3.12.31 3.15.15z" fill="#263238"/><path d="m266.15 442c.24 0 .15-2.12 1.28-4.36s2.81-3.47 2.67-3.67-2.2.81-3.41 3.31-.75 4.78-.54 4.72z" fill="#263238"/><path d="m231.72 441.84a9.1 9.1 0 0 0 1.84 1 41.4 41.4 0 0 0 5.34 2.16 78.53 78.53 0 0 0 18.63 3c7.36.44 14 .57 18.84.72l5.72.09a10.66 10.66 0 0 0 2.09-.07 10.11 10.11 0 0 0 -2.08-.25l-5.7-.36-18.82-.95a87.84 87.84 0 0 1 -18.51-2.83c-4.63-1.25-7.28-2.65-7.35-2.51z" fill="#263238"/><path d="m230.19 442.86a39.89 39.89 0 0 0 3.79-1.41 17.21 17.21 0 0 1 9.41-.89c3.66.83 6.11 3.5 7.69 5.34a29.38 29.38 0 0 0 2.63 3.09 15.44 15.44 0 0 0 -2.17-3.45 19.45 19.45 0 0 0 -3-3.27 11.7 11.7 0 0 0 -4.93-2.51 16.19 16.19 0 0 0 -9.79 1.15 12.88 12.88 0 0 0 -3.63 1.95z" fill="#263238"/><path d="m186.63 399.94s-48.63 27.16-50.36 28.3c-2.64 1.72-.4 10.93 4 9.67 2.11-.59 41.87-8.7 46.18-10s16.24-9.75 16.24-9.75z" fill="#455a64"/><path d="m171.14 423c.21 0-.43-2.77-2.76-5.2s-5-3.22-5-3 2.3 1.29 4.46 3.58 3.07 4.75 3.3 4.62z" fill="#263238"/><path d="m175.58 419.56c.2-.06-.53-2.46-2.51-4.77s-4.21-3.43-4.31-3.24 1.82 1.57 3.68 3.78 2.92 4.33 3.14 4.23z" fill="#263238"/><path d="m180 417.17c.22 0 .17-2.66-1.67-5.26s-4.31-3.57-4.37-3.36 2 1.42 3.7 3.84 2.05 4.82 2.34 4.78z" fill="#263238"/><path d="m177.6 411.2c.13-.05-.42-1.35-.8-3.56a19.66 19.66 0 0 1 -.28-3.88 18.56 18.56 0 0 1 .21-2.29 2.14 2.14 0 0 1 .32-1 .49.49 0 0 1 .65-.1c.51.25.73 1.17.93 1.9a11.13 11.13 0 0 1 .3 2.25 16.45 16.45 0 0 1 -.39 3.86c-.48 2.18-1 3.49-.89 3.54a9.6 9.6 0 0 0 1.45-3.4 14.46 14.46 0 0 0 .59-4 10.75 10.75 0 0 0 -.28-2.41 8.82 8.82 0 0 0 -.37-1.25 2.16 2.16 0 0 0 -1-1.2 1.33 1.33 0 0 0 -1.67.32 2.91 2.91 0 0 0 -.48 1.36 18.16 18.16 0 0 0 -.17 2.39 17.87 17.87 0 0 0 .46 4 8.74 8.74 0 0 0 1.42 3.47z" fill="#263238"/><path d="m177.54 410.7c.06.12 1.18-.36 3.09-.68a16.37 16.37 0 0 1 3.36-.22 7.5 7.5 0 0 1 1.9.25 1.27 1.27 0 0 1 1 1.16 1.65 1.65 0 0 1 -.89 1.42 3.81 3.81 0 0 1 -1.76.46 8.7 8.7 0 0 1 -3.25-.56 21.53 21.53 0 0 0 -3-1.1 8.81 8.81 0 0 0 2.76 1.65 8.52 8.52 0 0 0 3.48.77 4.45 4.45 0 0 0 2.15-.52 2.45 2.45 0 0 0 1.31-2.12 2.09 2.09 0 0 0 -1.62-1.93 7.74 7.74 0 0 0 -2.07-.28 14.16 14.16 0 0 0 -3.49.41 6.86 6.86 0 0 0 -2.97 1.29z" fill="#263238"/><path d="m146.36 436.63c0 .08.81-.42 1.26-1.72a6.86 6.86 0 0 0 -.52-5.11 18.3 18.3 0 0 0 -1.39-2.43 8.85 8.85 0 0 0 -1.46-1.8 2.84 2.84 0 0 0 -1.44-.73c-.39 0-.59 0-.59.09s.82.12 1.62 1.06a10 10 0 0 1 1.22 1.79 23.78 23.78 0 0 1 1.29 2.37 7.21 7.21 0 0 1 .71 4.6c-.26 1.19-.81 1.79-.7 1.88z" fill="#263238"/><path d="m163.92 425.33c.21 0 .31-2.32-1.33-4.56s-3.89-2.91-3.92-2.7 1.81 1.13 3.25 3.18 1.75 4.11 2 4.08z" fill="#263238"/><path d="m197.83 419.43a17.15 17.15 0 0 0 -2.14 1.26 60.66 60.66 0 0 1 -6 3.11 77.19 77.19 0 0 1 -9.39 3.41c-3.61 1.06-7.64 2-11.9 2.94-8.53 1.82-16.26 3.49-21.84 4.75l-6.56 1.53a14 14 0 0 0 -2.4.67 15.79 15.79 0 0 0 2.46-.36l6.66-1.27c5.61-1.11 13.34-2.69 21.88-4.52 4.27-.91 8.32-1.9 12-3a67.07 67.07 0 0 0 9.41-3.61 46.24 46.24 0 0 0 5.91-3.36 12.87 12.87 0 0 0 1.91-1.55z" fill="#263238"/><path d="m199.51 420.17a13 13 0 0 0 -3.86-1.32 16.25 16.25 0 0 0 -9.85.51 11.71 11.71 0 0 0 -4.44 3.29 20.27 20.27 0 0 0 -2.45 3.74 15.23 15.23 0 0 0 -1.56 3.77 27.94 27.94 0 0 0 2.07-3.49c1.26-2.08 3.23-5.12 6.7-6.55a17.2 17.2 0 0 1 9.42-.7c2.46.43 3.94.88 3.97.75z" fill="#263238"/><path d="m290.32 335.2s13.59 6 12.55 21.6c-2 29.95-64.93 58.7-64.93 58.7l-76.94-59.11-4.92-2.4s111.8-33.26 134.24-18.79z" fill="#263238"/><path d="m199.79 387.15a15.3 15.3 0 0 0 2.2-1.27c1.39-.87 3.37-2.16 5.81-3.78 4.87-3.25 11.51-7.87 18.67-13.19s13.51-10.36 18-14.09c2.25-1.87 4.06-3.4 5.29-4.48a14.67 14.67 0 0 0 1.85-1.74 16.81 16.81 0 0 0 -2.06 1.49l-5.45 4.27c-4.6 3.61-11 8.56-18.14 13.88s-13.73 10-18.51 13.38l-5.66 4a15.42 15.42 0 0 0 -2 1.53z" fill="#455a64"/><path d="m266.55 345.69c0-.19-3.53-.8-7.82.16s-7.29 3-7.17 3.15 3.19-1.45 7.34-2.34 7.64-.66 7.65-.97z" fill="#455a64"/><path d="m259.93 340.49c-.06-.2-2.72.75-5 3.26s-3.13 5.25-2.93 5.25 1.28-2.35 3.49-4.69 4.56-3.6 4.44-3.82z" fill="#455a64"/><path d="m287.43 437.7c.05-.09-.94-.35-2.12.49a7.53 7.53 0 0 0 -2.66 4.52 9.15 9.15 0 0 0 .37 5.21c.48 1.27 1.07 1.89 1.15 1.83a15.23 15.23 0 0 0 -.6-2 10.6 10.6 0 0 1 -.12-4.86 8.14 8.14 0 0 1 2.22-4.23c.92-.85 1.77-.82 1.76-.96z" fill="#263238"/><path d="m245.12 420.58s-108.73-82.77-113.28-84.65-15.32-10.07-26.82-7.75-22.32 11.72-28.41 26.15c-3.48 8.24-5.86 22.55-7.26 33.31a50 50 0 0 0 9.19 36.41c3.53 4.73 8 8.95 13.5 11.09 1.16.45 2.37.86 3.61 1.22 21.23 6.19 44-1.93 57.45-19.51l2.9-3.85s72.64 32.63 73.83 32.32z" fill="#263238"/><path d="m105.56 390.1s.2.12.6.32l1.82.87 7 3.29 26.14 12c11.11 5.06 24.42 11.07 39.35 17.73s31.5 14 49.22 21.38l.32.13.18-.3 10.1-16.38 5.15-8.35.2-.32-.31-.22-83.03-61.25-25-18.3-6.78-4.93-1.77-1.26c-.4-.28-.62-.41-.62-.41s.18.17.57.47l1.73 1.33 6.69 5c5.87 4.37 14.32 10.69 24.8 18.51l82.91 61.49-.1-.54-5.15 8.35-10.1 16.39.51-.17c-17.71-7.4-34.28-14.68-49.23-21.28l-39.43-17.57-26.24-11.77-7.09-3.16-1.84-.8c-.38-.18-.6-.25-.6-.25z" fill="#455a64"/><path d="m243.7 257.24c-3.6-6.24-11.31-10.12-18.31-8.43-3.22.78-6.4 3-7 6.25-.76 4.06 2.56 7.59 4.27 11.34a15.74 15.74 0 0 1 -4.23 18.17c-4.43 3.62-6.46 3.68-10.34 1.17-.14-1.25-.32-2.47-.51-3.66-1-5.82-6.85-12.26-10.84-16.61-3.72-4.05-11.58-6-15.82-9.51-9.46-7.81-17.38-22.83-20-34.81h-10.85l-22 5.52s-5.45 18.73 0 36.6 11.5 23.73 11.5 23.73c2.8 9.24 5.68 18.66 11.3 26.51s14.55 14 24.2 13.68c9.85-.32 18.21-6.89 25.19-13.86a27.58 27.58 0 0 0 7.74-15.87c7-.58 14.06-1.93 20.42-4.95 6.51-3.09 12.29-8.05 15.46-14.52s3.42-14.51-.18-20.75z" fill="#455a64"/><path d="m186.5 291.47a6.28 6.28 0 0 0 11.33-.18c.74-1.62.84-3.63 2.16-4.83.91-.84 2.2-1.08 3.26-1.72a6.46 6.46 0 0 0 2.63-6.3 15 15 0 0 0 -2.9-6.52 45.7 45.7 0 0 0 -5.14-6.14c-.9-.9-2-1.82-3.28-1.65-1.55.22-2.36 1.93-2.86 3.42a127.14 127.14 0 0 0 -5.32 22.19" fill="#263238"/><path d="m161.29 223.91c0-1.14-3.72-24.58-6.29-27.72s-13.43-9.72-13.43-9.72-12.86 0-15.72-1.71-10.57-6.57-10.57-6.57-6.57 4.28-8.57 9.43.28 11.14 0 11.71 14.57 10.58 16.57 13.72 3.14 16 4.29 17.15 33.72-6.29 33.72-6.29z" fill="#455a64"/><path d="m145.87 195.45s-.65.47-1.76 1.41a19.94 19.94 0 0 0 -4 4.61 18.91 18.91 0 0 0 -1.85 3.77 15 15 0 0 0 -1 4.69 7.6 7.6 0 0 0 1.46 4.92 9.67 9.67 0 0 0 4.64 3.07 32.51 32.51 0 0 0 5.6 1.28c1.81.32 3.66.43 5.1-.42a3.26 3.26 0 0 0 1.51-1.73 5.79 5.79 0 0 0 .25-2.26c-.12-1.5-.32-2.93-.45-4.22-.26-2.53-.48-4.61-.64-6.13-.07-.67-.11-1.23-.15-1.67a2.32 2.32 0 0 1 0-.58 2.21 2.21 0 0 1 .12.57c.07.44.15 1 .25 1.66.2 1.51.47 3.58.81 6.11.15 1.3.37 2.69.51 4.24a6 6 0 0 1 -.25 2.43 3.77 3.77 0 0 1 -1.7 2 5.67 5.67 0 0 1 -2.63.73 13.08 13.08 0 0 1 -2.79-.22 32.85 32.85 0 0 1 -5.7-1.3 10.14 10.14 0 0 1 -4.87-3.25 8.16 8.16 0 0 1 -1.53-5.24 14.77 14.77 0 0 1 1-4.83 19.47 19.47 0 0 1 6.2-8.39 14 14 0 0 1 1.38-1 2.2 2.2 0 0 1 .49-.25z" fill="#263238"/><path d="m128.77 192.43c-.05 0 .2-.62 1-1.14a3.61 3.61 0 0 1 5.58 3 2 2 0 0 1 -.39 1.48c-.09 0 .13-.57 0-1.45a3.41 3.41 0 0 0 -5-2.73 12.74 12.74 0 0 0 -1.19.84z" fill="#263238"/><path d="m107.65 187.86c.09 0 .46 1 1.34 2.47a19.2 19.2 0 0 0 10.18 8.33c1.63.56 2.7.73 2.69.82a2.18 2.18 0 0 1 -.77 0 12.9 12.9 0 0 1 -2-.44 17.4 17.4 0 0 1 -10.39-8.5 11.81 11.81 0 0 1 -.83-1.91 2.16 2.16 0 0 1 -.22-.77z" fill="#263238"/><path d="m107.45 188.3a23.54 23.54 0 0 1 -2.08-3.28c-.27-.5-.44-1-.76-1.52a2 2 0 0 0 -1.44-.93 1.73 1.73 0 0 0 -1.54.9 3 3 0 0 0 -.29 1.72 7.63 7.63 0 0 0 2.81 5.25 9.23 9.23 0 0 0 6 2 42.44 42.44 0 0 0 -2.7-4.14z" fill="#ff725e"/><path d="m155.93 213.32a5.94 5.94 0 0 0 -4.61-1.9 11.7 11.7 0 0 0 -4.92 1.36 9 9 0 0 0 -2.85 2 4 4 0 0 0 -1 3.24s6.42 1.93 8.57 1.66 3.93-.09 4.81-2.85a9.42 9.42 0 0 0 0-3.51z" fill="#263238"/><path d="m236.15 250.16c-3.05.61-4.15 3.84-4.42 6.48a13.1 13.1 0 0 0 .58 5.77 8.47 8.47 0 0 0 3.57 4.47 8.82 8.82 0 0 0 5.91.89 5.43 5.43 0 0 0 3.45-1.79c1.24-1.6.83-3.56-.26-5.9-2-4.26-4.66-7.72-8.83-9.92" fill="#263238"/><path d="m174.89 326.58c1.42 2.15 2.89 4.45 3 7s-1.75 5.42-4.33 5.39c-2.17 0-3.79-1.93-5.1-3.67-3.86-5.13-8.42-11.51-12.28-16.64a94.08 94.08 0 0 0 18-11.62c2.69 7.44.65 12.17 1 20.06" fill="#455a64"/><path d="m205.49 310a4.35 4.35 0 0 1 2.48-2.66 20.2 20.2 0 0 0 3-1.42 2.77 2.77 0 0 0 1.32-2.83 3 3 0 0 0 -2.23-1.83 6.45 6.45 0 0 0 -7.92 4.57c-.53 2 .13 4.41 2 5.29" fill="#ffbe9d"/><path d="m182.83 316 14.95 1.65 3.24-4 2.07 1.82s-4.32 6.9-6 6.84-14.31-2.51-16-2.92-1.96-3.98 1.74-3.39z" fill="#ffbe9d"/><path d="m179.7 320.77 14.47 1.23 2.84-3.49 1.82 1.6s-5.23 6.89-6.69 6.89-12.48-2.87-13.94-3.22-1.75-3.49 1.5-3.01z" fill="#ffbe9d"/><path d="m187.52 311.35 13.92.58 3.39-4.86 1.29.65s-2.77 10.78-4.43 10.72-14.22-3.27-15.89-3.67-1.99-3.96 1.72-3.42z" fill="#ffbe9d"/><path d="m205.43 310.22a12.87 12.87 0 0 1 -1 3.6 35.87 35.87 0 0 1 -1.64 3.74 5.92 5.92 0 0 1 -.31.52 1.2 1.2 0 0 1 -.28.3.82.82 0 0 1 -.35.11 4 4 0 0 1 -1.3 0l-2.54-.42a80.27 80.27 0 0 1 -8.81-2.05c-1.11-.33-2-.63-2.61-.85a3.52 3.52 0 0 1 -.93-.41c0-.07 1.4.34 3.63.91s5.34 1.27 8.81 1.89l2.53.43a3.61 3.61 0 0 0 1.13 0c.07 0 .22 0 .21-.06l.11-.14a5.35 5.35 0 0 0 .29-.47 40.21 40.21 0 0 0 1.71-3.65c.46-1.06.8-1.93 1-2.53a5.28 5.28 0 0 1 .35-.92z" fill="#eb996e"/><path d="m201.23 318.44a2.6 2.6 0 0 1 -.4.76 13.35 13.35 0 0 1 -1.44 1.88 6.44 6.44 0 0 1 -1.29 1.07 3.75 3.75 0 0 1 -1.88.52 7.9 7.9 0 0 1 -2.08-.32 17.22 17.22 0 0 0 -2.14-.44c-3-.53-5.65-1.16-7.57-1.62a21.15 21.15 0 0 1 -3.1-.83 17.74 17.74 0 0 1 3.17.47c1.95.37 4.62.94 7.59 1.46 1.51.16 2.91.81 4.13.8a4.07 4.07 0 0 0 2.91-1.37c1.37-1.38 2.02-2.44 2.1-2.38z" fill="#eb996e"/><path d="m60.86 222.15s-24 15.43-21.12 40.39 29 42.41 35.09 47.76 43 23.37 72.57 12.47c30.82-11.35 43-33.71 45.88-42.59s4.55-25.86-.09-30.85-19.25-12.83-22.82-10 0 14.62-19.25 16.76-71.3-22.82-72.37-23.18-17.89-10.76-17.89-10.76z" fill="#ff725e"/><path d="m137.07 256.35-8.6-4.4-2.81-25.07c-6.51-4.38-14.27-4.18-20.84.11-2.85 1.85-5.1 4.48-7.6 6.78s-5.49 4.36-8.87 4.65c-1.48.13-3-.08-4.45.13a4.15 4.15 0 0 0 -3.47 2.45c-.46 1.41-.09 2.86 2.21 3.72l9.46 4.46s-2.72 4.89.85 13.34 11.73 5.76 11.73 5.76.13 16.53 10.94 16.64c5.51.06 9.07-3.84 13.45-16.25a19.73 19.73 0 0 1 13.43-12.42c1.5-.56-6.5.75-5.43.1z" opacity=".3"/><path d="m182.07 241.74-.24-.09-.69-.28c-.61-.25-1.51-.61-2.7-1a22.75 22.75 0 0 0 -4.39-1.07 7.88 7.88 0 0 0 -2.77.09 3 3 0 0 0 -1.29.68 2.67 2.67 0 0 0 -.72 1.32 23 23 0 0 1 -2.75 6.81 21.67 21.67 0 0 1 -2.51 3.26 10.24 10.24 0 0 1 -1.59 1.48 13.62 13.62 0 0 1 -1.92 1.13 30.4 30.4 0 0 1 -9 2.56 29.9 29.9 0 0 1 -4.94.26l-2.5-.12a17.44 17.44 0 0 0 -2.5.12 11 11 0 0 0 -5.84 2.23 18 18 0 0 0 -5.33 6.75 24.51 24.51 0 0 0 -2.13 7.73 36.47 36.47 0 0 0 1.34 13.4c1 3.7 2.1 6.6 2.82 8.6.36 1 .64 1.73.84 2.29l.21.6.06.21s-.05-.06-.11-.19-.15-.35-.25-.58c-.23-.55-.53-1.31-.92-2.27a85.91 85.91 0 0 1 -3-8.57 36.41 36.41 0 0 1 -1.45-13.53 25 25 0 0 1 2.14-7.89 18.58 18.58 0 0 1 5.46-6.95 11.43 11.43 0 0 1 6.14-2.39 18.5 18.5 0 0 1 2.57-.12l2.51.13a31.87 31.87 0 0 0 13.67-2.74 9.85 9.85 0 0 0 3.38-2.49 20.86 20.86 0 0 0 2.48-3.18 22.4 22.4 0 0 0 2.76-6.67 2.94 2.94 0 0 1 .85-1.49 3.36 3.36 0 0 1 1.44-.74 8 8 0 0 1 2.88 0 22 22 0 0 1 4.43 1.16c1.18.42 2.07.82 2.67 1.09l.67.33c.15.07.23.12.22.13z" fill="#263238"/><path d="m122.71 306.24a6.18 6.18 0 0 1 -.54-1.26 32.38 32.38 0 0 1 -1.14-3.53 48.45 48.45 0 0 1 -1.16-5.4 49.69 49.69 0 0 1 -.22-13.49 47.23 47.23 0 0 1 1-5.43c.37-1.53.73-2.75 1-3.57a7.27 7.27 0 0 1 .5-1.27 6.07 6.07 0 0 1 -.3 1.33c-.24.84-.54 2.06-.86 3.59s-.63 3.36-.86 5.4a53.42 53.42 0 0 0 .22 13.37c.3 2 .65 3.86 1 5.37s.71 2.74 1 3.57a7.71 7.71 0 0 1 .36 1.32z" fill="#263238"/><path d="m96.52 250.24a9.5 9.5 0 0 1 -2.49-.59 39.43 39.43 0 0 1 -5.72-2.33 37.57 37.57 0 0 1 -5.31-3.21 9.4 9.4 0 0 1 -2-1.65 16.51 16.51 0 0 1 2.16 1.35 57.1 57.1 0 0 0 5.31 3 55.82 55.82 0 0 0 5.6 2.45 18.22 18.22 0 0 1 2.45.98z" fill="#263238"/><path d="m46.58 240.42a4.82 4.82 0 0 1 .8-.87 17.82 17.82 0 0 1 2.54-2 20.14 20.14 0 0 1 20.44-1.06 17.65 17.65 0 0 1 2.74 1.72 4.53 4.53 0 0 1 .9.79c-.06.09-1.35-1-3.78-2.18a20.78 20.78 0 0 0 -20.08 1c-2.32 1.45-3.49 2.68-3.56 2.6z" fill="#263238"/><path d="m189.91 287.62a2.23 2.23 0 0 1 -.19.35c-.15.24-.35.56-.6 1-.54.85-1.28 2.16-2.41 3.71a81.61 81.61 0 0 1 -10.48 12.46 78.63 78.63 0 0 1 -19.58 14.07 71.25 71.25 0 0 1 -13.36 5 64.88 64.88 0 0 1 -15.19 2c-2.63.13-5.22-.06-7.78-.15-2.55-.27-5.07-.44-7.51-.89a97.49 97.49 0 0 1 -13.92-3.19 93.52 93.52 0 0 1 -22-10 69.62 69.62 0 0 1 -12.71-10.14 20.25 20.25 0 0 1 -1.74-1.88l-1.21-1.43-.74-.88a1.9 1.9 0 0 1 -.24-.31s.1.09.28.28l.78.85 1.25 1.38a22.25 22.25 0 0 0 1.76 1.85 72.4 72.4 0 0 0 12.77 10 94.66 94.66 0 0 0 21.91 9.89 99.77 99.77 0 0 0 13.86 3.15c2.42.44 4.93.6 7.46.87 2.55.09 5.13.28 7.74.15a64.38 64.38 0 0 0 15.07-2 71.56 71.56 0 0 0 13.28-5 78.8 78.8 0 0 0 19.59-13.91 84.19 84.19 0 0 0 10.57-12.3c1.16-1.54 1.92-2.82 2.49-3.66l.64-.95a2 2 0 0 1 .21-.32z" fill="#263238"/><path d="m84.31 315.93c-7.46-34 6.13-67.89 6.13-67.89l-5-2.62-.33.71a94.69 94.69 0 0 0 -14.54 60.94 54.66 54.66 0 0 0 13.74 8.86z" fill="#fafafa"/><path d="m117.53 243.39a11.27 11.27 0 0 0 -3.86 8.37c-.18 3.22-.22 6.81-2.45 9.14-2.64 2.75-7.52 2.31-10.33-.27s-3.81-6.66-3.62-10.47c.4-7.55 5.7-16.31 12.57-19.48s12-6 24.15-8.53l-4.07 19.85s-10.64 0-12.39 1.39z" fill="#455a64"/><path d="m127.49 237.25a8.12 8.12 0 0 1 -.21-1.52c-.09-1.08-.2-2.46-.34-4.08l.39.06a9.81 9.81 0 0 1 -1.81 3l-.58.65.17-.86a35.88 35.88 0 0 0 .63-6.24 36.92 36.92 0 0 0 -1.4-10.7c-.74-2.67-1.47-4.24-1.38-4.28a5.44 5.44 0 0 1 .56 1.08 27.53 27.53 0 0 1 1.18 3.1 34 34 0 0 1 1.56 10.81 33.07 33.07 0 0 1 -.69 6.33l-.41-.21a9.4 9.4 0 0 0 1.79-2.84l.35-.86v.92c.07 1.63.12 3 .17 4.1a8.34 8.34 0 0 1 .02 1.54z" fill="#263238"/><path d="m126.66 223.94a4.49 4.49 0 0 1 -.63.21c-.42.13-1 .31-1.82.57a56.31 56.31 0 0 0 -6.48 2.57c-1.34.62-2.78 1.35-4.31 2.16a55 55 0 0 0 -4.79 2.76 27.22 27.22 0 0 0 -8.69 8.95 19.43 19.43 0 0 0 -2.41 12.09 13.17 13.17 0 0 0 1.79 5.1 9.26 9.26 0 0 0 3.51 3.1 9 9 0 0 0 3.71 1.12 7.09 7.09 0 0 0 2.89-.54 4.6 4.6 0 0 0 1.59-1 3.71 3.71 0 0 0 .4-.51 1.11 1.11 0 0 1 -.32.58 4.38 4.38 0 0 1 -1.59 1.08 7.26 7.26 0 0 1 -3 .64 9.19 9.19 0 0 1 -3.88-1.08 9.66 9.66 0 0 1 -3.7-3.19 13.61 13.61 0 0 1 -1.91-5.27 19.75 19.75 0 0 1 2.44-12.42 27.33 27.33 0 0 1 8.88-9.09 53.14 53.14 0 0 1 4.85-2.74c1.54-.8 3-1.51 4.35-2.11a49.86 49.86 0 0 1 6.58-2.44c.8-.22 1.42-.38 1.85-.47a2.91 2.91 0 0 1 .69-.07z" fill="#263238"/><path d="m99.8 259.33c-.06 0-.33-.41-.53-1.2a8.68 8.68 0 0 1 -.13-3.14 7.06 7.06 0 0 1 1.62-4.08 27 27 0 0 0 -1.1 4.15 16.17 16.17 0 0 0 .14 4.27z" fill="#263238"/><path d="m104.54 262.54a5.86 5.86 0 0 1 -1.05-3.61 7.27 7.27 0 0 1 .8-3.67c.17 0-.26 1.67-.28 3.67s.7 3.55.53 3.61z" fill="#263238"/><path d="m142.83 225.58c1 2.4 2 5.08 1.06 7.52-1.19 3.22-5 4.43-8.32 5.36-6.63 1.89-13.3 4.48-18.23 9.3s-7.75 12.31-5.43 18.8a9.61 9.61 0 0 0 5.54 6c3 1 6.51-.15 8.85-2.34s3.06-4.83 4-7.89a10.93 10.93 0 0 1 3-4.91c1.53-1.22 3.68-1.11 5.64-1.1a35.76 35.76 0 0 0 17.19-4.32l-3.58-.53a10.1 10.1 0 0 0 4.3-4l-2.28 1.89a32.44 32.44 0 0 0 1.49-19.36" fill="#455a64"/><path d="m155.71 229.92a29.36 29.36 0 0 1 .61 4.83 38 38 0 0 1 -1.69 13.35l-.25-.2 2.65-1.41.55-.29-.3.55a14.19 14.19 0 0 1 -5.25 5.31l-.08-.38 3.27.3.59.05-.49.34a22.92 22.92 0 0 1 -8.55 3.53 35.42 35.42 0 0 1 -4.91.61c-1.67.12-3.4 0-5.09.1a7.31 7.31 0 0 0 -2.46.52 4.68 4.68 0 0 0 -1.95 1.55 17.29 17.29 0 0 0 -2.2 4.83 18 18 0 0 1 -2.3 5.1 11.19 11.19 0 0 1 -4.26 3.84 8.28 8.28 0 0 1 -7.45-.18 9.6 9.6 0 0 1 -4.52-5.71 19.26 19.26 0 0 1 1.47-13.56 22.12 22.12 0 0 1 8.42-9.09 40.54 40.54 0 0 1 5.11-2.42c1.65-.74 3.26-1.43 4.83-2 3.13-1.15 6.19-1.43 8.53-2.59a6.48 6.48 0 0 0 2.69-2.31 7.76 7.76 0 0 0 1-2.83 10.7 10.7 0 0 0 -.12-4.21c-.22-.94-.45-1.4-.42-1.42a6.11 6.11 0 0 1 .53 1.4 10.59 10.59 0 0 1 .21 4.26 7.93 7.93 0 0 1 -1 2.94 6.69 6.69 0 0 1 -2.77 2.43c-2.41 1.22-5.45 1.52-8.54 2.68-1.55.54-3.13 1.24-4.78 2a42.44 42.44 0 0 0 -5.06 2.43 21.75 21.75 0 0 0 -8.21 8.94 19.61 19.61 0 0 0 -1.89 6.33 12 12 0 0 0 -.13 1.7 14.29 14.29 0 0 0 0 1.73 12.44 12.44 0 0 0 .58 3.41 9.09 9.09 0 0 0 4.28 5.41 7.76 7.76 0 0 0 7 .17 10.75 10.75 0 0 0 4.06-3.66 18.13 18.13 0 0 0 2.25-5 17.3 17.3 0 0 1 2.28-5 5.18 5.18 0 0 1 2.15-1.7 7.83 7.83 0 0 1 2.63-.55c1.76-.08 3.44 0 5.1-.09a34.42 34.42 0 0 0 4.84-.59 22.79 22.79 0 0 0 8.4-3.42l.1.39-3.27-.32-.65-.06.57-.33a13.78 13.78 0 0 0 5.13-5.13l.24.25-2.66 1.38-.37.2.13-.4a38.83 38.83 0 0 0 1.83-13.24c0-1.57-.19-2.78-.28-3.6l-.12-.92a1.54 1.54 0 0 1 -.01-.25z" fill="#263238"/><path d="m113.66 270.06a5 5 0 0 1 -.11-6.35 14.52 14.52 0 0 0 -.55 3.19 15.41 15.41 0 0 0 .66 3.16z" fill="#263238"/><path d="m117.89 272.71c-.06 0-.37-.31-.74-1a7.45 7.45 0 0 1 -.81-2.83 7.19 7.19 0 0 1 .78-4.06c.18 0-.39 1.83-.26 4a17.3 17.3 0 0 0 1.03 3.89z" fill="#263238"/><path d="m124.43 271.8a6.87 6.87 0 0 1 -2.33-6.31c.15 0 .17 1.54.83 3.28s1.62 2.93 1.5 3.03z" fill="#263238"/><path d="m134.75 152.48a25.25 25.25 0 1 1 6.36 6l-8.68 3.84z" fill="#fafafa"/><path d="m162.6 135.94a4.69 4.69 0 0 0 -1-2.6 4.46 4.46 0 0 0 -2.25-1.57 3.63 3.63 0 0 0 -4.08 1.62 3.62 3.62 0 0 0 -1-1.23 3.72 3.72 0 0 0 -2.79-.72 4.5 4.5 0 0 0 -2.42 1.3 4.64 4.64 0 0 0 -1.34 2.46 5.7 5.7 0 0 0 .5 3.52 8 8 0 0 0 2.6 2.75c1.74 1.19 4 2.69 4 2.69s2.09-1.38 4-2.36a8 8 0 0 0 2.91-2.42 5.72 5.72 0 0 0 .87-3.44z" fill="#ff725e"/><path d="m155 112.22a1.73 1.73 0 0 1 .43 0h1.29 1l1.14.16 1.33.19 1.48.37a23.91 23.91 0 0 1 7.18 3.13 25.7 25.7 0 0 1 7.43 7.23 26 26 0 0 1 4.21 11.82 25 25 0 0 1 .07 3.47c0 .59 0 1.19-.11 1.78l-.27 1.79a25.51 25.51 0 0 1 -2.41 7.07 27.34 27.34 0 0 1 -4.62 6.35 26.89 26.89 0 0 1 -6.65 4.78 24.39 24.39 0 0 1 -8.11 2.49 15.6 15.6 0 0 1 -2.16.18 20 20 0 0 1 -2.19 0 26.1 26.1 0 0 1 -4.38-.55 25.63 25.63 0 0 1 -8.71-3.67h.26l-8.88 3.56-.52.21.15-.55q1.34-4.87 2.61-9.49v.24a25.55 25.55 0 0 1 -4.74-10.85 22.82 22.82 0 0 1 -.34-5.56 18.15 18.15 0 0 1 .25-2.67c.07-.43.14-.86.2-1.29s.21-.85.31-1.26a25.38 25.38 0 0 1 9.91-14.44 24.11 24.11 0 0 1 5.89-3.11l1.33-.48 1.26-.32 1.16-.28c.37-.08.72-.11 1.06-.16.67-.09 1.26-.21 1.78-.23h1.3.8a1.1 1.1 0 0 1 .27 0h-.27l-.8.07-1.29.08c-.52 0-1.1.17-1.76.27a25.24 25.24 0 0 0 -20.19 18.73c-.1.41-.23.82-.3 1.24s-.13.84-.19 1.27a17.48 17.48 0 0 0 -.24 2.62 22.93 22.93 0 0 0 .36 5.45 25.13 25.13 0 0 0 4.67 10.73l.08.11v.13q-1.26 4.59-2.59 9.49l-.38-.33 8.88-3.58h.14l.12.08a25.21 25.21 0 0 0 12.8 4.13h2.14a16.69 16.69 0 0 0 2.12-.18 23.69 23.69 0 0 0 7.93-2.43 24.68 24.68 0 0 0 11-10.87 24.68 24.68 0 0 0 2.39-6.91l.27-1.76c.09-.58.08-1.16.12-1.74a25 25 0 0 0 -11.39-22.23 24.33 24.33 0 0 0 -7.07-3.19l-1.46-.39-1.32-.21-1.12-.19c-.35 0-.66-.05-.94-.07l-1.29-.09a3.43 3.43 0 0 1 -.43-.14z" fill="#263238"/><path d="m335.42 342.6h105.42v95.65h-105.42z" fill="#ff725e"/><path d="m335.42 342.6h105.42v95.65h-105.42z" opacity=".3"/><path d="m292.02 342.6h105.42v95.65h-105.42z" fill="#ff725e"/><path d="m292.02 342.6-21.91 34.84h101.27l26.06-34.84z" fill="#ff725e"/><path d="m292.02 342.6-21.91 34.84h101.27l26.06-34.84z" opacity=".3"/><path d="m397.44 342.6s0 .06-.1.18l-.35.5-1.4 1.92c-1.25 1.7-3 4.14-5.31 7.21-4.59 6.19-11.08 14.91-18.71 25.18l-.07.09h-.12-28.87l-51.2-.08-15.51-.08-4.22-.05h-1.1-.37.37 1.1l4.22-.05 15.51-.08 51.2-.08h28.87l-.19.09 18.86-25.06 5.42-7.13 1.45-1.88.38-.48z" fill="#263238"/><path d="m398.42 342.6 27.83 34.84h43.7l-29.1-34.84z" fill="#ff725e"/><path d="m304.38 391.67h78.75v28.34h-78.75z" fill="#fafafa" transform="matrix(.98119173 -.19303574 .19303574 .98119173 -71.9 74.02)"/><path d="m385.12 412.14-.11-.49c-.07-.35-.17-.82-.3-1.44l-1.13-5.5c-1-4.78-2.36-11.71-4.1-20.35l.21.14-77.25 15.29.2-.3c1.91 9.69 3.75 19.08 5.46 27.81l-.29-.2 55.31-10.76 16.14-3.11 4.34-.82 1.13-.21.39-.06a1.35 1.35 0 0 1 -.35.09l-1.1.23-4.27.87-16.06 3.24-55.43 11-.25.05-.05-.24-5.48-27.81-.05-.26.26-.05 77.28-15.12h.17v.18c1.67 8.7 3 15.67 3.94 20.49.45 2.37.79 4.21 1 5.47.11.61.2 1.08.26 1.41a4.54 4.54 0 0 1 .13.45z" fill="#263238"/><path d="m321 411.69-3.58.7-.38 1.8-1.37.27 1.81-7.79 1.31-.26 4.64 6.52-1.39.27zm-.65-1-2-2.86-.72 3.39z" fill="#263238"/><path d="m322.91 405.59 3.09-.59c2.33-.46 4.19.66 4.62 2.81s-.88 3.89-3.21 4.35l-3.12.61zm4.25 5.43a2.51 2.51 0 1 0 -1-4.91l-1.73.35 1 4.9z" fill="#263238"/><path d="m331.55 407.61a3.93 3.93 0 1 1 4.58 2.92 3.73 3.73 0 0 1 -4.58-2.92zm6.37-1.25a2.56 2.56 0 1 0 -2 3 2.48 2.48 0 0 0 2-3z" fill="#263238"/><path d="m346.46 403.6c.31 1.58-.66 2.78-2.55 3.15l-1.61.32.41 2.06-1.33.26-1.38-7.15 2.94-.58c1.85-.37 3.21.34 3.52 1.94zm-1.34.27c-.18-.9-.88-1.31-2.05-1.08l-1.55.31.56 2.84 1.55-.3c1.17-.23 1.67-.88 1.49-1.77z" fill="#263238"/><path d="m348.76 401.67-2.37.47-.22-1.13 6.07-1.19.22 1.12-2.37.47 1.19 6-1.33.27z" fill="#263238"/><path d="m364.05 404.93-.94-4.74-1.58 4.39-.59.11-3.12-3.4.93 4.68-1.27.25-1.41-7.15 1.09-.22 3.78 4.19 1.86-5.3 1.09-.21 1.42 7.15z" fill="#263238"/><path d="m372.4 402.13.21 1.12-5.36 1.05-1.41-7.16 5.22-1 .22 1.11-3.89.77.36 1.86 3.46-.68.21 1.09-3.42.71.39 2z" fill="#263238"/><path d="m305.7 393.82h4.31v8.34h-4.31z" fill="#e0e0e0" transform="matrix(.95563892 -.29454074 .29454074 .95563892 -103.57 108.34)"/><path d="m377.52 409.1h4.31v8.34h-4.31z" fill="#e0e0e0" transform="matrix(.95563892 -.29454074 .29454074 .95563892 -104.89 130.17)"/><path d="m372.83 380.43h4.31v8.34h-4.31z" fill="#e0e0e0" transform="matrix(.99850822 .05460164 -.05460164 .99850822 21.53 -19.87)"/><path d="m311.1 422.09h4.31v8.34h-4.31z" fill="#e0e0e0" transform="matrix(.99850822 .05460164 -.05460164 .99850822 23.71 -16.45)"/></svg>