<svg width="390" height="598" viewBox="0 0 390 598" fill="none" xmlns="http://www.w3.org/2000/svg">
<rect x="299" width="55" height="299" rx="27.5" transform="rotate(90 299 0)" fill="url(#paint0_linear)"/>
<rect x="343" y="61" width="55" height="343" rx="27.5" transform="rotate(90 343 61)" fill="url(#paint1_linear)"/>
<rect x="365" y="122" width="54" height="365" rx="27" transform="rotate(90 365 122)" fill="url(#paint2_linear)"/>
<rect x="343" y="182" width="54" height="343" rx="27" transform="rotate(90 343 182)" fill="url(#paint3_linear)"/>
<rect x="255" y="242" width="54" height="255" rx="27" transform="rotate(90 255 242)" fill="url(#paint4_linear)"/>
<rect x="315" y="302" width="54" height="315" rx="27" transform="rotate(90 315 302)" fill="url(#paint5_linear)"/>
<rect x="365" y="362" width="54" height="365" rx="27" transform="rotate(90 365 362)" fill="url(#paint6_linear)"/>
<rect x="390" y="422" width="55" height="390" rx="27.5" transform="rotate(90 390 422)" fill="url(#paint7_linear)"/>
<rect x="343" y="483" width="55" height="343" rx="27.5" transform="rotate(90 343 483)" fill="url(#paint8_linear)"/>
<rect x="299" y="544" width="54" height="299" rx="27" transform="rotate(90 299 544)" fill="url(#paint9_linear)"/>
<defs>
<linearGradient id="paint0_linear" x1="326.5" y1="0" x2="326.5" y2="299" gradientUnits="userSpaceOnUse">
<stop stop-color="#23B5D5"/>
<stop offset="1" stop-color="#491275" stop-opacity="0.94"/>
</linearGradient>
<linearGradient id="paint1_linear" x1="370.5" y1="61" x2="370.5" y2="404" gradientUnits="userSpaceOnUse">
<stop stop-color="#23B5D5"/>
<stop offset="1" stop-color="#491275" stop-opacity="0.94"/>
</linearGradient>
<linearGradient id="paint2_linear" x1="392" y1="122" x2="392" y2="487" gradientUnits="userSpaceOnUse">
<stop stop-color="#23B5D5"/>
<stop offset="1" stop-color="#491275" stop-opacity="0.94"/>
</linearGradient>
<linearGradient id="paint3_linear" x1="370" y1="182" x2="370" y2="525" gradientUnits="userSpaceOnUse">
<stop stop-color="#23B5D5"/>
<stop offset="1" stop-color="#491275" stop-opacity="0.94"/>
</linearGradient>
<linearGradient id="paint4_linear" x1="282" y1="242" x2="282" y2="497" gradientUnits="userSpaceOnUse">
<stop stop-color="#23B5D5"/>
<stop offset="1" stop-color="#491275" stop-opacity="0.94"/>
</linearGradient>
<linearGradient id="paint5_linear" x1="342" y1="302" x2="342" y2="617" gradientUnits="userSpaceOnUse">
<stop stop-color="#23B5D5"/>
<stop offset="1" stop-color="#491275" stop-opacity="0.94"/>
</linearGradient>
<linearGradient id="paint6_linear" x1="392" y1="362" x2="392" y2="727" gradientUnits="userSpaceOnUse">
<stop stop-color="#23B5D5"/>
<stop offset="1" stop-color="#491275" stop-opacity="0.94"/>
</linearGradient>
<linearGradient id="paint7_linear" x1="417.5" y1="422" x2="417.5" y2="812" gradientUnits="userSpaceOnUse">
<stop stop-color="#23B5D5"/>
<stop offset="1" stop-color="#491275" stop-opacity="0.94"/>
</linearGradient>
<linearGradient id="paint8_linear" x1="370.5" y1="483" x2="370.5" y2="826" gradientUnits="userSpaceOnUse">
<stop stop-color="#23B5D5"/>
<stop offset="1" stop-color="#491275" stop-opacity="0.94"/>
</linearGradient>
<linearGradient id="paint9_linear" x1="326" y1="544" x2="326" y2="843" gradientUnits="userSpaceOnUse">
<stop stop-color="#23B5D5"/>
<stop offset="1" stop-color="#491275" stop-opacity="0.94"/>
</linearGradient>
</defs>
</svg>
