<svg fill="none" height="2094" viewBox="0 0 1956 2094" width="1956" xmlns="http://www.w3.org/2000/svg"><path d="m961.406 1647.65c528.864 0 957.594-73.72 957.594-164.66 0-90.95-428.73-164.67-957.594-164.67-528.862 0-957.58898 73.72-957.58898 164.67 0 90.94 428.72698 164.66 957.58898 164.66z" fill="#92e3a9"/><path d="m961.406 1647.65c528.864 0 957.594-73.72 957.594-164.66 0-90.95-428.73-164.67-957.594-164.67-528.862 0-957.58898 73.72-957.58898 164.67 0 90.94 428.72698 164.66 957.58898 164.66z" fill="#fff" opacity=".5"/><path d="m1750.53 1038.44s-9.07-349.291-132.54-388.456c-125.96-39.976-260.53-36.581-390.99-30.653-123.02 5.573-632.416 2.179-754.927 10.133-135.126 8.917-185.134 70.933-214.925 195.875-16.31 69.814-25.377 141.124-27.056 212.801l-30.096 90.33h1580.784z" fill="#263238" stroke="#263238" stroke-linecap="round" stroke-linejoin="round"/><path d="m1750.53 1103.09s-9.07-349.342-132.54-388.456c-125.96-39.976-260.53-36.581-390.99-30.4-123.02 5.574-632.416 2.179-754.927 10.134-135.126 8.917-185.134 70.932-214.925 195.875-16.31 69.814-25.377 141.127-27.056 212.797l-30.096 90.34h1580.784z" fill="#fff" stroke="#263238" stroke-linecap="round" stroke-linejoin="round"/><path d="m332.285 1080.6v-78.28s-2.989-57.257-69.26-63.286-246.9468 135.536-244.0082 165.626c2.9387 30.1 36.2263 244.06 57.3034 252.98 21.0771 8.91 75.2898 51.17 123.4738 27.1 48.183-24.06 132.491-304.14 132.491-304.14z" fill="#263238" stroke="#263238" stroke-linecap="round" stroke-linejoin="round"/><path d="m1624.02 1080.6v-78.28s3.04-57.257 69.26-63.286 246.94 135.536 243.9 165.626c-3.04 30.1-36.12 244.06-57.2 252.98-21.07 8.91-75.29 51.17-123.47 27.1-48.18-24.06-132.49-304.14-132.49-304.14z" fill="#263238" stroke="#263238" stroke-linecap="round" stroke-linejoin="round"/><path d="m332.285 1080.6c-4.927 5.08-10.228 9.79-15.858 14.08-40.533 33.44-143.74 112.38-143.74 112.38h1616.963l-165.63-135.48z" fill="#263238" stroke="#263238" stroke-linecap="round" stroke-linejoin="round"/><path d="m172.687 1207.06v124.48h1616.143l.82-124.48z" fill="#fff" stroke="#263238" stroke-linecap="round" stroke-linejoin="round"/><path d="m133.522 1454-38.506 120.74c-.7675 2.39-.9585 4.93-.5574 7.41.4012 2.48 1.3831 4.82 2.8656 6.85 1.4824 2.03 3.4228 3.67 5.6638 4.8 2.241 1.14 4.717 1.72 7.228 1.71 2.57.01 5.102-.61 7.38-1.8 2.277-1.19 4.23-2.92 5.692-5.04l91.604-131.73z" fill="#263238" stroke="#263238" stroke-linecap="round" stroke-linejoin="round"/><path d="m1828.66 1454 38.5 120.74c.77 2.39.96 4.93.56 7.41s-1.38 4.82-2.86 6.85c-1.49 2.03-3.43 3.67-5.67 4.8-2.24 1.14-4.72 1.72-7.23 1.71-2.57.01-5.1-.61-7.38-1.8-2.27-1.19-4.23-2.92-5.69-5.04l-91.6-131.73z" fill="#263238" stroke="#263238" stroke-linecap="round" stroke-linejoin="round"/><path d="m1906.63 1069.3c-19.96-9.78-42.56-11.3-69.61 2.28-54.21 27.05-48.19 135.48-48.19 135.48v120.43h-1616.244v-120.63s6.029-108.43-48.184-135.49c-27.106-13.57-49.7031-12.05-69.6149-2.28-34.6556 16.98-52.94608 55.74-47.77814 94.09 8.46124 62.73 24.52234 171.51 39.11424 215.33 21.0771 63.23 21.0771 75.29 66.2208 90.34 39.215 13.02 542.786 3.44 675.632.66 132.847 2.78 1021.784 12.36 1060.944-.66 45.2-15.2 45.2-27.11 66.28-90.34 14.59-43.82 30.65-152.6 39.11-215.33 5.22-38.05-13.02-76.91-47.68-93.88z" fill="#fff" stroke="#263238" stroke-linecap="round" stroke-linejoin="round"/><path d="m980.963 519.823s-58.62 1.976-107.31 17.125-183.716 74.378-183.716 74.378l-32.882 84.967c.854 1.582 2.266 2.79 3.96 3.389 1.695.599 3.552.547 5.211-.147 5.928-2.634 138.267-45.599 149.465-50.007 11.197-4.408 27.663-10.539 27.663-10.539l16.365 210.366-28.322 75.037s30.957 40.837 95.455 44.13 90.898 3.293 122.458-10.133c31.57-13.427 49.4-21.077 49.4-21.077l-23.71-88.21 21.18-148.908s52.64 137.609 66.47 151.441 42.81 7.245 51.38-30.957c8.56-38.202-27.01-100.065-39.52-132.289-12.52-32.224-19.1-82.991-49.35-113.239-30.25-30.247-93.53-45.599-116.53-50.058-23.005-4.459-27.667-5.269-27.667-5.269z" fill="#fff" stroke="#263238" stroke-linecap="round" stroke-linejoin="round"/><path d="m1096.74 936.247-24.37-15.807s-7.91 15.807-80.311 32.933c-72.401 17.125-155.393-34.909-155.393-34.909s-13.173 27.005-22.394 49.399c-7.549 18.341-62.117 155.087-80.204 204.387-4.202 11.42-6.129 23.56-5.675 35.72l18.037 317.78 48.893 2.43 56.189-334.65 94.695-153.87h44.636l112.427 166.08 42.16 331.41 45.6 3.29 21.88-313.88c1.89-13.82.15-27.89-5.06-40.83z" fill="#92e3a9" stroke="#263238" stroke-miterlimit="10"/><path d="m879.783 986.407c22.206 10.22 42.363 24.403 59.482 41.853" stroke="#263238" stroke-linecap="round" stroke-linejoin="round"/><path d="m1000.98 1030.49c12.43-27.17 33.31-49.601 59.53-63.944" stroke="#263238" stroke-linecap="round" stroke-linejoin="round"/><path d="m851.106 964.367c17.465 4.068 34.449 9.978 50.666 17.632" stroke="#263238" stroke-linecap="round" stroke-linejoin="round"/><path d="m1174.51 688.389c-12.52-32.274-19.1-82.991-49.35-113.239s-93.53-45.599-116.53-50.058c-23.005-4.459-27.667-5.067-27.667-5.067s-58.62 1.976-107.31 17.126c-35.467 11.045-117.292 45.599-158.636 63.535l14.592 77.874c37.999-12.515 80.002-26.347 86.132-28.829 11.198-4.611 27.664-10.539 27.664-10.539l16.365 210.366-28.322 75.036s30.957 40.837 95.455 44.13c64.498 3.294 90.897 3.294 122.457-10.133 31.57-13.426 49.4-21.077 49.4-21.077l-23.71-88.21 21.13-149.11s13.63 35.466 28.83 72.402c15.2-11.957 42.76-30.906 70.93-35.466-7.9-18.595-16.67-36.024-21.43-48.741z" fill="#263238" stroke="#263238" stroke-linecap="round" stroke-linejoin="round"/><path d="m942.964 893.485s91.506-48.183 115.616-101.332" stroke="#fff" stroke-linecap="round" stroke-linejoin="round"/><path d="m894.78 888.672s72.25-19.304 113.19-67.437" stroke="#fff" stroke-linecap="round" stroke-linejoin="round"/><path d="m824.912 594.809 18.138 84.105-1.266-88.919" stroke="#fff" stroke-linecap="round" stroke-linejoin="round"/><path d="m1097.09 623.688-.91 76.506 22.6-74.074" stroke="#fff" stroke-linecap="round" stroke-linejoin="round"/><g stroke="#263238"><path d="m965.814 525.751s-30.957-6.587-36.885-5.067-1.976 44.13 9.88 83.599 38.861 69.818 73.111 45.6c34.25-24.219 35.47-65.208 36.83-81.623l2.64-32.933-36.18-7.398z" fill="#fff" stroke-linecap="round" stroke-linejoin="round"/><path d="m942.103 523.775c4.519 28.361 11.296 56.316 20.266 83.599 13.173 36.885 50.061 20.266 60.801-8.563 7.06-20.981 12.14-42.573 15.2-64.498 0 0-42.764 17.784-64.5 7.904-11.343-4.745-22.022-10.944-31.767-18.442z" fill="#fff" stroke-linecap="round" stroke-linejoin="round"/><path d="m915.098 448.738s-9.171-14.49-17.075-8.562-7.245 32.882 0 45.599 22.85 11.755 22.85 11.755 5.928 13.173 18.443 35.466c12.514 22.293 35.466 41.495 58.621 40.178 23.153-1.317 36.833-15.808 48.693-34.25 7.9-13.864 13.26-29.034 15.8-44.789 0 0 37.55-19.101 29.64-41.445-.75-2.896-2.12-5.595-4.02-7.912-1.9-2.316-4.27-4.196-6.96-5.509-2.69-1.314-5.63-2.031-8.62-2.101-3-.071-5.97.505-8.72 1.69 0 0 8.56-31.615 1.32-59.938-7.25-28.322-23.71-46.714-62.52-54.618-38.813-7.904-83.653 8.512-90.239 19.051-6.587 10.538-4.611 26.346-2.635 48.741 1.976 22.394 5.422 56.644 5.422 56.644z" fill="#fff" stroke-linecap="round" stroke-linejoin="round"/><path d="m1029.77 527.695s-11.01-6.904-39.374-5.736c-28.367 1.167-39.084 9.022-39.084 9.022s22.766-37.569 34.862-45.789c12.095-8.221 36.126 27.134 43.596 42.503z" fill="#263238" stroke-linecap="round" stroke-linejoin="round"/><path d="m998.747 459.885s5.063 11.856 0 14.49c-3.06 1.068-6.333 1.386-9.542.928-3.209-.459-6.261-1.68-8.9-3.562-1.077-.998-1.742-2.362-1.864-3.825-.122-1.462.308-2.918 1.205-4.079" stroke-linecap="round" stroke-linejoin="round"/><path d="m939.468 415.147s7.904-20.267 34.909-9.222" stroke-linecap="round" stroke-linejoin="round"/><path d="m1007.31 407.243s19.1-15.2 34.86 3.293" stroke-linecap="round" stroke-linejoin="round"/><path d="m963.838 431.917c0 4.205-1.469 7.6-3.293 7.6s-3.293-3.395-3.293-7.6 1.469-7.549 3.293-7.549 3.293 3.394 3.293 7.549z" fill="#263238" stroke-linecap="round" stroke-linejoin="round"/><path d="m1021.14 431.664c0 4.154-1.52 7.549-3.29 7.549s-3.29-3.395-3.29-7.549c0-4.155 1.46-7.6 3.29-7.6 1.82 0 3.29 3.344 3.29 7.6z" fill="#263238" stroke-linecap="round" stroke-linejoin="round"/><path d="m989.608 515.148c6.932.022 13.772-1.577 19.972-4.667-8.89-9.608-18.314-16.323-24.258-11.969-4.667 4.043-8.771 8.694-12.203 13.827 5.279 1.936 10.867 2.888 16.489 2.809z" fill="#fff" stroke-linecap="round" stroke-linejoin="round"/><path d="m917.074 316.398s-21.027 12.515-23.003 26.955 21.027 103.409 21.027 105.385 10.538 3.294 10.538-3.293-1.317-25.029-2.635-34.909c-1.317-9.88 15.2-14.491 11.198-26.346-4.003-11.856-13.832-21.077-11.856-24.371 1.976-3.293 24.37-13.173 27.663-9.88 3.294 3.294 25.688 25.688 38.203 24.371 12.511-1.318 4.61-25.688 4.61-25.688s30.961 42.813 42.761 38.861c11.81-3.952 14.49-22.395 14.49-22.395s-4.61 32.933-1.32 36.885c3.3 3.952 8.57 10.134 8.57 10.134s-4.71 34.757-1.98 34.757c2.74 0 9.88.658 9.88-1.976 0-2.635 10.54-57.962 10.54-73.77-.01-9.465-3.01-18.685-8.56-26.347 0 0 30.4 11.856 17.78-6.586-12.61-18.443-42.15-34.858-51.37-36.176-9.23-1.317-19.71-1.976-19.71-1.976s40.78-12.514 23-21.077c-17.78-8.562-82.283 6.587-102.043 19.76-19.759 13.173-17.783 17.682-17.783 17.682z" fill="#263238" stroke-linecap="round" stroke-linejoin="round"/><path d="m822.277 402.632s23.712 2.635 26.347 9.88c2.634 7.245.658 34.25-1.976 38.861-2.635 4.61-9.222 1.976-14.491-5.067-5.269-7.042-5.928-27.005-5.928-27.005l-11.197-7.904s-7.904-8.765 7.245-8.765z" fill="#fff" stroke-linecap="round" stroke-linejoin="round"/><path d="m827.293 350.041s2.432-7.955-14.896-11.096c-16.314-2.939-17.581 4.408-17.581 4.408-.293.451-.435.983-.405 1.52-.032 1.133.193 2.259.659 3.293.748 1.234 1.328 2.563 1.722 3.952.355 2.939-4.053 3.192-4.661 6.08-.275.839-.275 1.744 0 2.584.821 1.972.999 4.153.507 6.232l-4.459 15.2c-3.962 13.509-9.613 26.464-16.821 38.557l-7.144 12.007c-7.706 12.937-13.267 27.035-16.467 41.749l-9.221 42.256c-.775 3.514-.847 7.146-.214 10.687.634 3.542 1.961 6.924 3.905 9.951 1.945 3.028 4.468 5.641 7.426 7.69 2.957 2.049 6.291 3.493 9.808 4.25l6.587 1.47h.608l6.637 1.418c7.102 1.552 14.529.219 20.648-3.705s10.429-10.118 11.981-17.22l9.221-42.255c3.187-14.706 4.008-29.825 2.432-44.789l-1.52-13.883c-1.478-13.997-1.206-28.123.811-42.053l2.28-15.757c.414-2.095 1.499-3.998 3.091-5.421.63-.624 1.07-1.415 1.266-2.28.507-2.28-1.013-3.243-1.773-5.067s0-3.546 1.976-5.066c1.335-.722 2.467-1.767 3.293-3.04.16-.244.27-.518.322-.805.052-.288.046-.582-.018-.867z" fill="#263238" stroke-linecap="round" stroke-linejoin="round"/><path d="m748.609 506.498s5.37-8.056 21.533-4.459c16.162 3.597 21.533 8.968 21.533 8.968l13.477-54.01c-7.416-6.146-16.544-9.861-26.144-10.64-5.993-.196-11.993.109-17.935.912z" fill="#92e3a9" stroke-miterlimit="10"/><path d="m765.025 376.944s57.252 13.832 57.252 21.077c0 7.246 1.976 35.467 0 40.837-1.048 2.62-1.961 5.292-2.736 8.006-2.714-1.151-5.354-2.471-7.904-3.952-4.61-2.635-36.986-5.067-36.986-5.067s26.448 7.144 28.424 12.413 8.562 15.2 1.976 15.757c-6.587.558-14.491-9.221-17.125-10.133-2.635-.912-35.467 1.317-35.467 1.317.815 2.547 1.005 5.253.554 7.888-.451 2.636-1.529 5.124-3.144 7.255-1.615 2.132-3.718 3.843-6.133 4.991-2.415 1.147-5.071 1.697-7.743 1.602 0 0-37.544 148.807-46.106 175.812-8.563 27.005-13.173 44.738-35.467 47.372-22.293 2.635-36.226-20.266-42.154-43.42-5.928-23.155 7.904-40.837 19.101-54.011 11.198-13.173 82.282-145.513 90.186-160.611 7.904-15.099 39.52-67.133 43.472-67.133z" fill="#fff" stroke-linecap="round" stroke-linejoin="round"/><path d="m771.003 398.021c12.07.985 23.978 3.417 35.466 7.246 5.356 2.036 10.457 4.689 15.2 7.904" stroke-linecap="round" stroke-linejoin="round"/><path d="m767.406 419.251s15.2 0 26.448.912c11.247.912 29.082 14.743 29.082 14.743" stroke-linecap="round" stroke-linejoin="round"/><path d="m746.43 1525.75s-107.463 78.18-87.906 83.09 122.106-21.99 122.106-21.99l14.693-58.67z" fill="#fff" stroke-miterlimit="10"/><path d="m1145.27 1537.15 1.83 66.78 117.24 14.64s12.21-14.64-7.35-26.86c-19.55-12.21-65.86-51.27-65.86-51.27z" fill="#fff" stroke-miterlimit="10"/><path d="m1187.68 562.636c-5.68-.332-11.35.802-16.47 3.293-6.58 3.952-5.06 36.834-.65 44.738 4.4 7.904 15.2.659 16.46-12.514 1.27-13.174.66-35.517.66-35.517z" fill="#fff" stroke-linecap="round" stroke-linejoin="round"/><path d="m1208.1 664.728c-4.84-3.426-8.52-8.253-10.54-13.832-1.57-5.152-1.57-10.656 0-15.808 0 0-1.97 2.635-7.24-8.562-5.27-11.198-11.86-56.594-11.2-64.498s51.37-7.246 55.73-8.563 7.25 21.077 7.25 42.762-8.57 62.573-8.57 76.405-3.04 108.071-16.16 146.932c-13.12 38.86-25.33 42.66-44.43 40.026-19.1-2.635-29.59-11.856-23.71-44.08 5.87-32.223 58.87-150.782 58.87-150.782z" fill="#fff" stroke-linecap="round" stroke-linejoin="round"/><path d="m1183.07 577.734c2.5-4.353 5.6-8.328 9.22-11.805 3.3-1.976 39.52-5.928 41.5-2.635" stroke-linecap="round" stroke-linejoin="round"/><path d="m1184.34 598.862s7.24-16.467 15.81-17.125c8.56-.659 32.27.658 32.27.658" stroke-linecap="round" stroke-linejoin="round"/><path d="m1189.66 621.206s-.66-13.832 5.93-18.443c6.58-4.61 39.51-2.634 39.51-2.634" stroke-linecap="round" stroke-linejoin="round"/><path d="m1197.56 635.038 13.17-9.222-7.24-6.586" stroke-linecap="round" stroke-linejoin="round"/></g><path d="m1417.4 1052.88 79.6-58.367" stroke="#fff" stroke-linecap="round" stroke-linejoin="round"/><path d="m1553.95 1153.66 19.96-5.27" stroke="#fff" stroke-linecap="round" stroke-linejoin="round"/><path d="m1433.31 1185.52 100.12-26.44" stroke="#fff" stroke-linecap="round" stroke-linejoin="round"/><path d="m1430.68 1376.49 108.73 21.22" stroke="#fff" stroke-linecap="round" stroke-linejoin="round"/><path d="m550.099 1052.88-79.597-58.367" stroke="#fff" stroke-linecap="round" stroke-linejoin="round"/><path d="m413.554 1153.66-19.963-5.27" stroke="#fff" stroke-linecap="round" stroke-linejoin="round"/><path d="m534.19 1185.52-100.116-26.44" stroke="#fff" stroke-linecap="round" stroke-linejoin="round"/><path d="m536.824 1376.49-108.729 21.22" stroke="#fff" stroke-linecap="round" stroke-linejoin="round"/><path d="m961.406 2093.51c380.554 0 689.064-73.72 689.064-164.66s-308.51-164.67-689.064-164.67c-380.556 0-689.059 73.73-689.059 164.67s308.503 164.66 689.059 164.66z" fill="#92e3a9"/><path d="m961.406 2093.51c380.554 0 689.064-73.72 689.064-164.66s-308.51-164.67-689.064-164.67c-380.556 0-689.059 73.73-689.059 164.67s308.503 164.66 689.059 164.66z" fill="#fff" opacity=".5"/><path d="m1640.03 1668.12h-1318.537v295.18h1318.537z" fill="#263238" stroke="#263238" stroke-linecap="round" stroke-linejoin="round"/><path d="m300.67 1631.49h1360.18l-51.17-140.35h-1257.838z" fill="#92e3a9"/><path d="m586.984 1587.86-287.48-118.05h1354.656l-327.81 118.05z" fill="#fff" opacity=".7"/><path d="m300.67 1631.49h1360.18l-51.17-140.35h-1257.838z" stroke="#263238" stroke-linecap="round" stroke-linejoin="round"/><path d="m1660.8 1632.45h-1360.13v41.14h1360.13z" fill="#263238" stroke="#263238" stroke-linecap="round" stroke-linejoin="round"/><path d="m611.962 1606.97h-21.938l65.207-62.98h21.938z" fill="#263238" stroke="#263238" stroke-linecap="round" stroke-linejoin="round"/><path d="m737.513 1606.97h21.938l-65.207-62.98h-21.938z" fill="#263238" stroke="#263238" stroke-linecap="round" stroke-linejoin="round"/><path d="m1237.13 1606.97h-21.89l65.16-62.98h21.94z" fill="#263238" stroke="#263238" stroke-linecap="round" stroke-linejoin="round"/><path d="m1347.58 1606.97h21.94l-65.21-62.98h-21.93z" fill="#263238" stroke="#263238" stroke-linecap="round" stroke-linejoin="round"/><path d="m1377.58 1077.76h-793.687v485.38h793.687z" fill="#263238" stroke="#263238" stroke-linecap="round" stroke-linejoin="round"/><path d="m596.762 1060.89-12.869 14.44h793.687l-12.87-14.44z" fill="#fff" stroke="#263238" stroke-linecap="round" stroke-linejoin="round"/><path d="m619.917 1502.59h714.593" stroke="#fff" stroke-linecap="round" stroke-linejoin="round"/><path d="m1187.78 1458.26h-424.985c-1.135.09-2.277-.06-3.353-.43s-2.063-.97-2.9-1.74c-.836-.77-1.503-1.71-1.96-2.75-.456-1.05-.692-2.17-.692-3.31s.236-2.27.692-3.31c.457-1.05 1.124-1.98 1.96-2.76.837-.77 1.824-1.36 2.9-1.74 1.076-.37 2.218-.52 3.353-.43h424.985c2.07.17 4.01 1.1 5.42 2.63s2.19 3.53 2.19 5.61-.78 4.08-2.19 5.6c-1.41 1.53-3.35 2.47-5.42 2.63z" fill="#263238" stroke="#fff" stroke-linecap="round" stroke-linejoin="round"/><path d="m750.534 1316.9v-187.46h446.826v197.95" stroke="#fff" stroke-linecap="round" stroke-linejoin="round"/><path d="m1226.74 1156.8c3.64 0 6.59-2.95 6.59-6.59s-2.95-6.59-6.59-6.59c-3.63 0-6.58 2.95-6.58 6.59s2.95 6.59 6.58 6.59z" stroke="#fff" stroke-linecap="round" stroke-linejoin="round"/><path d="m1226.74 1189.63c3.64 0 6.59-2.95 6.59-6.59s-2.95-6.58-6.59-6.58c-3.63 0-6.58 2.94-6.58 6.58s2.95 6.59 6.58 6.59z" stroke="#fff" stroke-linecap="round" stroke-linejoin="round"/><path d="m1226.74 1222.41c3.64 0 6.59-2.95 6.59-6.59 0-3.63-2.95-6.58-6.59-6.58-3.63 0-6.58 2.95-6.58 6.58 0 3.64 2.95 6.59 6.58 6.59z" stroke="#fff" stroke-linecap="round" stroke-linejoin="round"/><path d="m1226.74 1255.24c3.64 0 6.59-2.95 6.59-6.59 0-3.63-2.95-6.58-6.59-6.58-3.63 0-6.58 2.95-6.58 6.58 0 3.64 2.95 6.59 6.58 6.59z" stroke="#fff" stroke-linecap="round" stroke-linejoin="round"/><path clip-rule="evenodd" d="m1097.89 202.728 26.51-7.103-18.13-110.2723-47.81 12.8115z" fill="#000" fill-rule="evenodd"/><path d="m1125.07 251.138c11.24-3.012 17.92-14.548 14.92-25.765-3.01-11.216-14.56-17.867-25.8-14.855-11.25 3.013-17.92 14.548-14.92 25.765 3.01 11.217 14.56 17.868 25.8 14.855z" fill="#000"/><path clip-rule="evenodd" d="m1160.11 71.1124c-30.4 10.2085-41.86 32.0386-34.79 64.0746l31.18-8.356c-2.54-11.072 1.38-20.91 12.45-25.169 10.87-4.1845 22.19-4.3656 27.45 2.421 5.69 7.33.47 19.019-2.16 24.041-4.85 9.31-14.53 17.745-18.14 27.357-3.55 9.414-1.77 20.078 1.2 32.915l27.48-7.363c-1.79-8.237-3.34-16.173-.99-22.22 3.82-9.826 11.78-16.083 17.57-24.589 5.54-8.127 11.1-17.628 9.29-29.535-5.42-35.6474-38.07-44.4851-70.54-33.5766z" fill="#000" fill-rule="evenodd"/><path d="m1203.47 230.127c9.59-2.567 15.3-12.299 12.78-21.737-2.53-9.437-12.35-15.006-21.93-12.439-9.59 2.568-15.31 12.3-12.78 21.738 2.53 9.437 12.35 15.006 21.93 12.438z" fill="#000"/></svg>