<svg width="1956" height="2094" viewBox="0 0 1956 2094" fill="none" xmlns="http://www.w3.org/2000/svg">
<path d="M961.406 1647.65C1490.27 1647.65 1919 1573.93 1919 1482.99C1919 1392.04 1490.27 1318.32 961.406 1318.32C432.544 1318.32 3.81702 1392.04 3.81702 1482.99C3.81702 1573.93 432.544 1647.65 961.406 1647.65Z" fill="#92E3A9"/>
<path opacity="0.5" d="M961.406 1647.65C1490.27 1647.65 1919 1573.93 1919 1482.99C1919 1392.04 1490.27 1318.32 961.406 1318.32C432.544 1318.32 3.81702 1392.04 3.81702 1482.99C3.81702 1573.93 432.544 1647.65 961.406 1647.65Z" fill="white"/>
<path d="M1750.53 1038.44C1750.53 1038.44 1741.46 689.149 1617.99 649.984C1492.03 610.008 1357.46 613.403 1227 619.331C1103.98 624.904 594.584 621.51 472.073 629.464C336.947 638.381 286.939 700.397 257.148 825.339C240.838 895.153 231.771 966.463 230.092 1038.14L199.996 1128.47H1780.78L1750.53 1038.44Z" fill="#263238" stroke="#263238" stroke-linecap="round" stroke-linejoin="round"/>
<path d="M1750.53 1103.09C1750.53 1103.09 1741.46 753.748 1617.99 714.634C1492.03 674.658 1357.46 678.053 1227 684.234C1103.98 689.808 594.584 686.413 472.073 694.368C336.947 703.285 286.939 765.3 257.148 890.243C240.838 960.057 231.771 1031.37 230.092 1103.04L199.996 1193.38H1780.78L1750.53 1103.09Z" fill="white" stroke="#263238" stroke-linecap="round" stroke-linejoin="round"/>
<path d="M332.285 1080.6V1002.32C332.285 1002.32 329.296 945.063 263.025 939.034C196.754 933.005 16.0782 1074.57 19.0168 1104.66C21.9555 1134.76 55.2431 1348.72 76.3202 1357.64C97.3973 1366.55 151.61 1408.81 199.794 1384.74C247.977 1360.68 332.285 1080.6 332.285 1080.6Z" fill="#263238" stroke="#263238" stroke-linecap="round" stroke-linejoin="round"/>
<path d="M1624.02 1080.6V1002.32C1624.02 1002.32 1627.06 945.063 1693.28 939.034C1759.5 933.005 1940.22 1074.57 1937.18 1104.66C1934.14 1134.76 1901.06 1348.72 1879.98 1357.64C1858.91 1366.55 1804.69 1408.81 1756.51 1384.74C1708.33 1360.68 1624.02 1080.6 1624.02 1080.6Z" fill="#263238" stroke="#263238" stroke-linecap="round" stroke-linejoin="round"/>
<path d="M332.285 1080.6C327.358 1085.68 322.057 1090.39 316.427 1094.68C275.894 1128.12 172.687 1207.06 172.687 1207.06H1789.65L1624.02 1071.58L332.285 1080.6Z" fill="#263238" stroke="#263238" stroke-linecap="round" stroke-linejoin="round"/>
<path d="M172.687 1207.06V1331.54H1788.83L1789.65 1207.06H172.687Z" fill="white" stroke="#263238" stroke-linecap="round" stroke-linejoin="round"/>
<path d="M133.522 1454L95.016 1574.74C94.2485 1577.13 94.0575 1579.67 94.4586 1582.15C94.8598 1584.63 95.8417 1586.97 97.3242 1589C98.8066 1591.03 100.747 1592.67 102.988 1593.8C105.229 1594.94 107.705 1595.52 110.216 1595.51C112.786 1595.52 115.318 1594.9 117.596 1593.71C119.873 1592.52 121.826 1590.79 123.288 1588.67L214.892 1456.94L133.522 1454Z" fill="#263238" stroke="#263238" stroke-linecap="round" stroke-linejoin="round"/>
<path d="M1828.66 1454L1867.16 1574.74C1867.93 1577.13 1868.12 1579.67 1867.72 1582.15C1867.32 1584.63 1866.34 1586.97 1864.86 1589C1863.37 1591.03 1861.43 1592.67 1859.19 1593.8C1856.95 1594.94 1854.47 1595.52 1851.96 1595.51C1849.39 1595.52 1846.86 1594.9 1844.58 1593.71C1842.31 1592.52 1840.35 1590.79 1838.89 1588.67L1747.29 1456.94L1828.66 1454Z" fill="#263238" stroke="#263238" stroke-linecap="round" stroke-linejoin="round"/>
<path d="M1906.63 1069.3C1886.67 1059.52 1864.07 1058 1837.02 1071.58C1782.81 1098.63 1788.83 1207.06 1788.83 1207.06V1327.49H172.586V1206.86C172.586 1206.86 178.615 1098.43 124.402 1071.37C97.296 1057.8 74.6989 1059.32 54.7871 1069.09C20.1315 1086.07 1.84102 1124.83 7.00896 1163.18C15.4702 1225.91 31.5313 1334.69 46.1232 1378.51C67.2003 1441.74 67.2003 1453.8 112.344 1468.85C151.559 1481.87 655.13 1472.29 787.976 1469.51C920.823 1472.29 1809.76 1481.87 1848.92 1468.85C1894.12 1453.65 1894.12 1441.74 1915.2 1378.51C1929.79 1334.69 1945.85 1225.91 1954.31 1163.18C1959.53 1125.13 1941.29 1086.27 1906.63 1069.3Z" fill="white" stroke="#263238" stroke-linecap="round" stroke-linejoin="round"/>
<path d="M980.963 519.823C980.963 519.823 922.343 521.799 873.653 536.948C824.963 552.097 689.937 611.326 689.937 611.326L657.055 696.293C657.909 697.875 659.321 699.083 661.015 699.682C662.71 700.281 664.567 700.229 666.226 699.535C672.154 696.901 804.493 653.936 815.691 649.528C826.888 645.12 843.354 638.989 843.354 638.989L859.719 849.355L831.397 924.392C831.397 924.392 862.354 965.229 926.852 968.522C991.35 971.815 1017.75 971.815 1049.31 958.389C1080.88 944.962 1098.71 937.312 1098.71 937.312L1075 849.102L1096.18 700.194C1096.18 700.194 1148.82 837.803 1162.65 851.635C1176.48 865.467 1205.46 858.88 1214.03 820.678C1222.59 782.476 1187.02 720.613 1174.51 688.389C1161.99 656.165 1155.41 605.398 1125.16 575.15C1094.91 544.903 1031.63 529.551 1008.63 525.092C985.625 520.633 980.963 519.823 980.963 519.823Z" fill="white" stroke="#263238" stroke-linecap="round" stroke-linejoin="round"/>
<path d="M1096.74 936.247L1072.37 920.44C1072.37 920.44 1064.46 936.247 992.059 953.373C919.658 970.498 836.666 918.464 836.666 918.464C836.666 918.464 823.493 945.469 814.272 967.863C806.723 986.204 752.155 1122.95 734.068 1172.25C729.866 1183.67 727.939 1195.81 728.393 1207.97L746.43 1525.75L795.323 1528.18L851.512 1193.53L946.207 1039.66H990.843L1103.27 1205.74L1145.43 1537.15L1191.03 1540.44L1212.91 1226.56C1214.8 1212.74 1213.06 1198.67 1207.85 1185.73L1096.74 936.247Z" fill="#92E3A9" stroke="#263238" stroke-miterlimit="10"/>
<path d="M879.783 986.407C901.989 996.627 922.146 1010.81 939.265 1028.26" stroke="#263238" stroke-linecap="round" stroke-linejoin="round"/>
<path d="M1000.98 1030.49C1013.41 1003.32 1034.29 980.889 1060.51 966.546" stroke="#263238" stroke-linecap="round" stroke-linejoin="round"/>
<path d="M851.106 964.367C868.571 968.435 885.555 974.345 901.772 981.999" stroke="#263238" stroke-linecap="round" stroke-linejoin="round"/>
<path d="M1174.51 688.389C1161.99 656.115 1155.41 605.398 1125.16 575.15C1094.91 544.902 1031.63 529.551 1008.63 525.092C985.625 520.633 980.963 520.025 980.963 520.025C980.963 520.025 922.343 522.001 873.653 537.151C838.186 548.196 756.361 582.75 715.017 600.686L729.609 678.56C767.608 666.045 809.611 652.213 815.741 649.731C826.939 645.12 843.405 639.192 843.405 639.192L859.77 849.558L831.448 924.594C831.448 924.594 862.405 965.431 926.903 968.724C991.401 972.018 1017.8 972.018 1049.36 958.591C1080.93 945.165 1098.76 937.514 1098.76 937.514L1075.05 849.304L1096.18 700.194C1096.18 700.194 1109.81 735.66 1125.01 772.596C1140.21 760.639 1167.77 741.69 1195.94 737.13C1188.04 718.535 1179.27 701.106 1174.51 688.389Z" fill="#263238" stroke="#263238" stroke-linecap="round" stroke-linejoin="round"/>
<path d="M942.964 893.485C942.964 893.485 1034.47 845.302 1058.58 792.153" stroke="white" stroke-linecap="round" stroke-linejoin="round"/>
<path d="M894.78 888.672C894.78 888.672 967.03 869.368 1007.97 821.235" stroke="white" stroke-linecap="round" stroke-linejoin="round"/>
<path d="M824.912 594.809L843.05 678.914L841.784 589.995" stroke="white" stroke-linecap="round" stroke-linejoin="round"/>
<path d="M1097.09 623.688L1096.18 700.194L1118.78 626.12" stroke="white" stroke-linecap="round" stroke-linejoin="round"/>
<path d="M965.814 525.751C965.814 525.751 934.857 519.164 928.929 520.684C923.001 522.204 926.953 564.814 938.809 604.283C950.665 643.752 977.67 674.101 1011.92 649.883C1046.17 625.664 1047.39 584.675 1048.75 568.26L1051.39 535.327L1015.21 527.929L965.814 525.751Z" fill="white" stroke="#263238" stroke-linecap="round" stroke-linejoin="round"/>
<path d="M942.103 523.775C946.622 552.136 953.399 580.091 962.369 607.374C975.542 644.259 1012.43 627.64 1023.17 598.811C1030.23 577.83 1035.31 556.238 1038.37 534.313C1038.37 534.313 995.606 552.097 973.87 542.217C962.527 537.472 951.848 531.273 942.103 523.775Z" fill="white" stroke="#263238" stroke-linecap="round" stroke-linejoin="round"/>
<path d="M915.098 448.738C915.098 448.738 905.927 434.248 898.023 440.176C890.119 446.104 890.778 473.058 898.023 485.775C905.268 498.492 920.873 497.53 920.873 497.53C920.873 497.53 926.801 510.703 939.316 532.996C951.83 555.289 974.782 574.491 997.937 573.174C1021.09 571.857 1034.77 557.366 1046.63 538.924C1054.53 525.06 1059.89 509.89 1062.43 494.135C1062.43 494.135 1099.98 475.034 1092.07 452.69C1091.32 449.794 1089.95 447.095 1088.05 444.778C1086.15 442.462 1083.78 440.582 1081.09 439.269C1078.4 437.955 1075.46 437.238 1072.47 437.168C1069.47 437.097 1066.5 437.673 1063.75 438.858C1063.75 438.858 1072.31 407.243 1065.07 378.92C1057.82 350.598 1041.36 332.206 1002.55 324.302C963.737 316.398 918.897 332.814 912.311 343.353C905.724 353.891 907.7 369.699 909.676 392.094C911.652 414.488 915.098 448.738 915.098 448.738Z" fill="white" stroke="#263238" stroke-linecap="round" stroke-linejoin="round"/>
<path d="M1029.77 527.695C1029.77 527.695 1018.76 520.791 990.396 521.959C962.029 523.126 951.312 530.981 951.312 530.981C951.312 530.981 974.078 493.412 986.174 485.192C998.269 476.971 1022.3 512.326 1029.77 527.695Z" fill="#263238" stroke="#263238" stroke-linecap="round" stroke-linejoin="round"/>
<path d="M998.747 459.885C998.747 459.885 1003.81 471.741 998.747 474.375C995.687 475.443 992.414 475.761 989.205 475.303C985.996 474.844 982.944 473.623 980.305 471.741C979.228 470.743 978.563 469.379 978.441 467.916C978.319 466.454 978.749 464.998 979.646 463.837" stroke="#263238" stroke-linecap="round" stroke-linejoin="round"/>
<path d="M939.468 415.147C939.468 415.147 947.372 394.88 974.377 405.925" stroke="#263238" stroke-linecap="round" stroke-linejoin="round"/>
<path d="M1007.31 407.243C1007.31 407.243 1026.41 392.043 1042.17 410.536" stroke="#263238" stroke-linecap="round" stroke-linejoin="round"/>
<path d="M963.838 431.917C963.838 436.122 962.369 439.517 960.545 439.517C958.721 439.517 957.252 436.122 957.252 431.917C957.252 427.712 958.721 424.368 960.545 424.368C962.369 424.368 963.838 427.762 963.838 431.917Z" fill="#263238" stroke="#263238" stroke-linecap="round" stroke-linejoin="round"/>
<path d="M1021.14 431.664C1021.14 435.818 1019.62 439.213 1017.85 439.213C1016.08 439.213 1014.56 435.818 1014.56 431.664C1014.56 427.509 1016.02 424.064 1017.85 424.064C1019.67 424.064 1021.14 427.408 1021.14 431.664Z" fill="#263238" stroke="#263238" stroke-linecap="round" stroke-linejoin="round"/>
<path d="M989.608 515.148C996.54 515.17 1003.38 513.571 1009.58 510.481C1000.69 500.873 991.266 494.158 985.322 498.512C980.655 502.555 976.551 507.206 973.119 512.339C978.398 514.275 983.986 515.227 989.608 515.148Z" fill="white" stroke="#263238" stroke-linecap="round" stroke-linejoin="round"/>
<path d="M917.074 316.398C917.074 316.398 896.047 328.913 894.071 343.353C892.095 357.793 915.098 446.762 915.098 448.738C915.098 450.714 925.636 452.032 925.636 445.445C925.636 438.858 924.319 420.416 923.001 410.536C921.684 400.656 938.201 396.045 934.199 384.19C930.196 372.334 920.367 363.113 922.343 359.819C924.319 356.526 946.713 346.646 950.006 349.939C953.3 353.233 975.694 375.627 988.209 374.31C1000.72 372.992 992.819 348.622 992.819 348.622C992.819 348.622 1023.78 391.435 1035.58 387.483C1047.39 383.531 1050.07 365.088 1050.07 365.088C1050.07 365.088 1045.46 398.021 1048.75 401.973C1052.05 405.925 1057.32 412.107 1057.32 412.107C1057.32 412.107 1052.61 446.864 1055.34 446.864C1058.08 446.864 1065.22 447.522 1065.22 444.888C1065.22 442.253 1075.76 386.926 1075.76 371.118C1075.75 361.653 1072.75 352.433 1067.2 344.771C1067.2 344.771 1097.6 356.627 1084.98 338.185C1072.37 319.742 1042.83 303.327 1033.61 302.009C1024.38 300.692 1013.9 300.033 1013.9 300.033C1013.9 300.033 1054.68 287.519 1036.9 278.956C1019.12 270.394 954.617 285.543 934.857 298.716C915.098 311.889 917.074 316.398 917.074 316.398Z" fill="#263238" stroke="#263238" stroke-linecap="round" stroke-linejoin="round"/>
<path d="M822.277 402.632C822.277 402.632 845.989 405.267 848.624 412.512C851.258 419.757 849.282 446.762 846.648 451.373C844.013 455.983 837.426 453.349 832.157 446.306C826.888 439.264 826.229 419.301 826.229 419.301L815.032 411.397C815.032 411.397 807.128 402.632 822.277 402.632Z" fill="white" stroke="#263238" stroke-linecap="round" stroke-linejoin="round"/>
<path d="M827.293 350.041C827.293 350.041 829.725 342.086 812.397 338.945C796.083 336.006 794.816 343.353 794.816 343.353C794.523 343.804 794.381 344.336 794.411 344.873C794.379 346.006 794.604 347.132 795.07 348.166C795.818 349.4 796.398 350.729 796.792 352.118C797.147 355.057 792.739 355.31 792.131 358.198C791.856 359.037 791.856 359.942 792.131 360.782C792.952 362.754 793.13 364.935 792.638 367.014L788.179 382.214C784.217 395.723 778.566 408.678 771.358 420.771L764.214 432.778C756.508 445.715 750.947 459.813 747.747 474.527L738.526 516.783C737.751 520.297 737.679 523.929 738.312 527.47C738.946 531.012 740.273 534.394 742.217 537.421C744.162 540.449 746.685 543.062 749.643 545.111C752.6 547.16 755.934 548.604 759.451 549.361L766.038 550.831H766.646L773.283 552.249C780.385 553.801 787.812 552.468 793.931 548.544C800.05 544.62 804.36 538.426 805.912 531.324L815.133 489.069C818.32 474.363 819.141 459.244 817.565 444.28L816.045 430.397C814.567 416.4 814.839 402.274 816.856 388.344L819.136 372.587C819.55 370.492 820.635 368.589 822.227 367.166C822.857 366.542 823.297 365.751 823.493 364.886C824 362.606 822.48 361.643 821.72 359.819C820.96 357.995 821.72 356.273 823.696 354.753C825.031 354.031 826.163 352.986 826.989 351.713C827.149 351.469 827.259 351.195 827.311 350.908C827.363 350.62 827.357 350.326 827.293 350.041Z" fill="#263238" stroke="#263238" stroke-linecap="round" stroke-linejoin="round"/>
<path d="M748.609 506.498C748.609 506.498 753.979 498.442 770.142 502.039C786.304 505.636 791.675 511.007 791.675 511.007L805.152 456.997C797.736 450.851 788.608 447.136 779.008 446.357C773.015 446.161 767.015 446.466 761.073 447.269L748.609 506.498Z" fill="#92E3A9" stroke="#263238" stroke-miterlimit="10"/>
<path d="M765.025 376.944C765.025 376.944 822.277 390.776 822.277 398.021C822.277 405.267 824.253 433.488 822.277 438.858C821.229 441.478 820.316 444.15 819.541 446.864C816.827 445.713 814.187 444.393 811.637 442.912C807.027 440.277 774.651 437.845 774.651 437.845C774.651 437.845 801.099 444.989 803.075 450.258C805.051 455.527 811.637 465.458 805.051 466.015C798.464 466.573 790.56 456.794 787.926 455.882C785.291 454.97 752.459 457.199 752.459 457.199C753.274 459.746 753.464 462.452 753.013 465.087C752.562 467.723 751.484 470.211 749.869 472.342C748.254 474.474 746.151 476.185 743.736 477.333C741.321 478.48 738.665 479.03 735.993 478.935C735.993 478.935 698.449 627.742 689.887 654.747C681.324 681.752 676.714 699.485 654.42 702.119C632.127 704.754 618.194 681.853 612.266 658.699C606.338 635.544 620.17 617.862 631.367 604.688C642.565 591.515 713.649 459.175 721.553 444.077C729.457 428.978 761.073 376.944 765.025 376.944Z" fill="white" stroke="#263238" stroke-linecap="round" stroke-linejoin="round"/>
<path d="M771.003 398.021C783.073 399.006 794.981 401.438 806.469 405.267C811.825 407.303 816.926 409.956 821.669 413.171" stroke="#263238" stroke-linecap="round" stroke-linejoin="round"/>
<path d="M767.406 419.251C767.406 419.251 782.606 419.251 793.854 420.163C805.101 421.075 822.936 434.906 822.936 434.906" stroke="#263238" stroke-linecap="round" stroke-linejoin="round"/>
<path d="M746.43 1525.75C746.43 1525.75 638.967 1603.93 658.524 1608.84C678.081 1613.75 780.63 1586.85 780.63 1586.85L795.323 1528.18L746.43 1525.75Z" fill="white" stroke="#263238" stroke-miterlimit="10"/>
<path d="M1145.27 1537.15L1147.1 1603.93L1264.34 1618.57C1264.34 1618.57 1276.55 1603.93 1256.99 1591.71C1237.44 1579.5 1191.13 1540.44 1191.13 1540.44L1145.27 1537.15Z" fill="white" stroke="#263238" stroke-miterlimit="10"/>
<path d="M1187.68 562.636C1182 562.304 1176.33 563.438 1171.21 565.929C1164.63 569.881 1166.15 602.763 1170.56 610.667C1174.96 618.571 1185.76 611.326 1187.02 598.153C1188.29 584.979 1187.68 562.636 1187.68 562.636Z" fill="white" stroke="#263238" stroke-linecap="round" stroke-linejoin="round"/>
<path d="M1208.1 664.728C1203.26 661.302 1199.58 656.475 1197.56 650.896C1195.99 645.744 1195.99 640.24 1197.56 635.088C1197.56 635.088 1195.59 637.723 1190.32 626.526C1185.05 615.328 1178.46 569.932 1179.12 562.028C1179.78 554.124 1230.49 554.782 1234.85 553.465C1239.21 552.148 1242.1 574.542 1242.1 596.227C1242.1 617.912 1233.53 658.8 1233.53 672.632C1233.53 686.464 1230.49 780.703 1217.37 819.564C1204.25 858.424 1192.04 862.224 1172.94 859.59C1153.84 856.955 1143.35 847.734 1149.23 815.51C1155.1 783.287 1208.1 664.728 1208.1 664.728Z" fill="white" stroke="#263238" stroke-linecap="round" stroke-linejoin="round"/>
<path d="M1183.07 577.734C1185.57 573.381 1188.67 569.406 1192.29 565.929C1195.59 563.953 1231.81 560.001 1233.79 563.294" stroke="#263238" stroke-linecap="round" stroke-linejoin="round"/>
<path d="M1184.34 598.862C1184.34 598.862 1191.58 582.395 1200.15 581.737C1208.71 581.078 1232.42 582.395 1232.42 582.395" stroke="#263238" stroke-linecap="round" stroke-linejoin="round"/>
<path d="M1189.66 621.206C1189.66 621.206 1189 607.374 1195.59 602.763C1202.17 598.153 1235.1 600.129 1235.1 600.129" stroke="#263238" stroke-linecap="round" stroke-linejoin="round"/>
<path d="M1197.56 635.038L1210.73 625.816L1203.49 619.23" stroke="#263238" stroke-linecap="round" stroke-linejoin="round"/>
<path d="M1417.4 1052.88L1497 994.513" stroke="white" stroke-linecap="round" stroke-linejoin="round"/>
<path d="M1553.95 1153.66L1573.91 1148.39" stroke="white" stroke-linecap="round" stroke-linejoin="round"/>
<path d="M1433.31 1185.52L1533.43 1159.08" stroke="white" stroke-linecap="round" stroke-linejoin="round"/>
<path d="M1430.68 1376.49L1539.41 1397.71" stroke="white" stroke-linecap="round" stroke-linejoin="round"/>
<path d="M550.099 1052.88L470.502 994.513" stroke="white" stroke-linecap="round" stroke-linejoin="round"/>
<path d="M413.554 1153.66L393.591 1148.39" stroke="white" stroke-linecap="round" stroke-linejoin="round"/>
<path d="M534.19 1185.52L434.074 1159.08" stroke="white" stroke-linecap="round" stroke-linejoin="round"/>
<path d="M536.824 1376.49L428.095 1397.71" stroke="white" stroke-linecap="round" stroke-linejoin="round"/>
<path d="M961.406 2093.51C1341.96 2093.51 1650.47 2019.79 1650.47 1928.85C1650.47 1837.91 1341.96 1764.18 961.406 1764.18C580.85 1764.18 272.347 1837.91 272.347 1928.85C272.347 2019.79 580.85 2093.51 961.406 2093.51Z" fill="#92E3A9"/>
<path opacity="0.5" d="M961.406 2093.51C1341.96 2093.51 1650.47 2019.79 1650.47 1928.85C1650.47 1837.91 1341.96 1764.18 961.406 1764.18C580.85 1764.18 272.347 1837.91 272.347 1928.85C272.347 2019.79 580.85 2093.51 961.406 2093.51Z" fill="white"/>
<path d="M1640.03 1668.12H321.493V1963.3H1640.03V1668.12Z" fill="#263238" stroke="#263238" stroke-linecap="round" stroke-linejoin="round"/>
<path d="M300.67 1631.49H1660.85L1609.68 1491.14H351.842L300.67 1631.49Z" fill="#92E3A9"/>
<path opacity="0.7" d="M586.984 1587.86L299.504 1469.81H1654.16L1326.35 1587.86H586.984Z" fill="white"/>
<path d="M300.67 1631.49H1660.85L1609.68 1491.14H351.842L300.67 1631.49Z" stroke="#263238" stroke-linecap="round" stroke-linejoin="round"/>
<path d="M1660.8 1632.45H300.67V1673.59H1660.8V1632.45Z" fill="#263238" stroke="#263238" stroke-linecap="round" stroke-linejoin="round"/>
<path d="M611.962 1606.97H590.024L655.231 1543.99H677.169L611.962 1606.97Z" fill="#263238" stroke="#263238" stroke-linecap="round" stroke-linejoin="round"/>
<path d="M737.513 1606.97H759.451L694.244 1543.99H672.306L737.513 1606.97Z" fill="#263238" stroke="#263238" stroke-linecap="round" stroke-linejoin="round"/>
<path d="M1237.13 1606.97H1215.24L1280.4 1543.99H1302.34L1237.13 1606.97Z" fill="#263238" stroke="#263238" stroke-linecap="round" stroke-linejoin="round"/>
<path d="M1347.58 1606.97H1369.52L1304.31 1543.99H1282.38L1347.58 1606.97Z" fill="#263238" stroke="#263238" stroke-linecap="round" stroke-linejoin="round"/>
<path d="M1377.58 1077.76H583.893V1563.14H1377.58V1077.76Z" fill="#263238" stroke="#263238" stroke-linecap="round" stroke-linejoin="round"/>
<path d="M596.762 1060.89L583.893 1075.33H1377.58L1364.71 1060.89H596.762Z" fill="white" stroke="#263238" stroke-linecap="round" stroke-linejoin="round"/>
<path d="M619.917 1502.59H1334.51" stroke="white" stroke-linecap="round" stroke-linejoin="round"/>
<path d="M1187.78 1458.26H762.795C761.66 1458.35 760.518 1458.2 759.442 1457.83C758.366 1457.46 757.379 1456.86 756.542 1456.09C755.706 1455.32 755.039 1454.38 754.582 1453.34C754.126 1452.29 753.89 1451.17 753.89 1450.03C753.89 1448.89 754.126 1447.76 754.582 1446.72C755.039 1445.67 755.706 1444.74 756.542 1443.96C757.379 1443.19 758.366 1442.6 759.442 1442.22C760.518 1441.85 761.66 1441.7 762.795 1441.79H1187.78C1189.85 1441.96 1191.79 1442.89 1193.2 1444.42C1194.61 1445.95 1195.39 1447.95 1195.39 1450.03C1195.39 1452.11 1194.61 1454.11 1193.2 1455.63C1191.79 1457.16 1189.85 1458.1 1187.78 1458.26Z" fill="#263238" stroke="white" stroke-linecap="round" stroke-linejoin="round"/>
<path d="M750.534 1316.9V1129.44H1197.36V1327.39" stroke="white" stroke-linecap="round" stroke-linejoin="round"/>
<path d="M1226.74 1156.8C1230.38 1156.8 1233.33 1153.85 1233.33 1150.21C1233.33 1146.57 1230.38 1143.62 1226.74 1143.62C1223.11 1143.62 1220.16 1146.57 1220.16 1150.21C1220.16 1153.85 1223.11 1156.8 1226.74 1156.8Z" stroke="white" stroke-linecap="round" stroke-linejoin="round"/>
<path d="M1226.74 1189.63C1230.38 1189.63 1233.33 1186.68 1233.33 1183.04C1233.33 1179.4 1230.38 1176.46 1226.74 1176.46C1223.11 1176.46 1220.16 1179.4 1220.16 1183.04C1220.16 1186.68 1223.11 1189.63 1226.74 1189.63Z" stroke="white" stroke-linecap="round" stroke-linejoin="round"/>
<path d="M1226.74 1222.41C1230.38 1222.41 1233.33 1219.46 1233.33 1215.82C1233.33 1212.19 1230.38 1209.24 1226.74 1209.24C1223.11 1209.24 1220.16 1212.19 1220.16 1215.82C1220.16 1219.46 1223.11 1222.41 1226.74 1222.41Z" stroke="white" stroke-linecap="round" stroke-linejoin="round"/>
<path d="M1226.74 1255.24C1230.38 1255.24 1233.33 1252.29 1233.33 1248.65C1233.33 1245.02 1230.38 1242.07 1226.74 1242.07C1223.11 1242.07 1220.16 1245.02 1220.16 1248.65C1220.16 1252.29 1223.11 1255.24 1226.74 1255.24Z" stroke="white" stroke-linecap="round" stroke-linejoin="round"/>
<path fill-rule="evenodd" clip-rule="evenodd" d="M1097.89 202.728L1124.4 195.625L1106.27 85.3527L1058.46 98.1642L1097.89 202.728Z" fill="black"/>
<path d="M1125.07 251.138C1136.31 248.126 1142.99 236.59 1139.99 225.373C1136.98 214.157 1125.43 207.506 1114.19 210.518C1102.94 213.531 1096.27 225.066 1099.27 236.283C1102.28 247.5 1113.83 254.151 1125.07 251.138Z" fill="black"/>
<path fill-rule="evenodd" clip-rule="evenodd" d="M1160.11 71.1124C1129.71 81.3209 1118.25 103.151 1125.32 135.187L1156.5 126.831C1153.96 115.759 1157.88 105.921 1168.95 101.662C1179.82 97.4775 1191.14 97.2964 1196.4 104.083C1202.09 111.413 1196.87 123.102 1194.24 128.124C1189.39 137.434 1179.71 145.869 1176.1 155.481C1172.55 164.895 1174.33 175.559 1177.3 188.396L1204.78 181.033C1202.99 172.796 1201.44 164.86 1203.79 158.813C1207.61 148.987 1215.57 142.73 1221.36 134.224C1226.9 126.097 1232.46 116.596 1230.65 104.689C1225.23 69.0416 1192.58 60.2039 1160.11 71.1124Z" fill="black"/>
<path d="M1203.47 230.127C1213.06 227.56 1218.77 217.828 1216.25 208.39C1213.72 198.953 1203.9 193.384 1194.32 195.951C1184.73 198.519 1179.01 208.251 1181.54 217.689C1184.07 227.126 1193.89 232.695 1203.47 230.127Z" fill="black"/>
</svg>
